<svg width="204" height="208" viewBox="0 0 204 208" fill="none" xmlns="http://www.w3.org/2000/svg">
<path d="M44.4972 189.296L23.0976 199.202C22.6651 199.387 22.1859 199.398 21.7469 199.231C21.308 199.065 20.9387 198.734 20.7061 198.297L11.3856 180.437C10.7467 179.212 11.0451 177.821 12.0635 177.35L37.5868 165.534C38.6052 165.063 39.7377 165.791 40.111 167.138L45.5484 186.795C45.6786 187.279 45.6441 187.798 45.4512 188.257C45.2582 188.716 44.9197 189.085 44.4972 189.296Z" fill="#489CFF"/>
<path d="M40.3495 162.839L8.35202 177.652C8.02115 177.805 7.86739 178.22 8.00858 178.579L10.3935 184.642C10.5347 185.001 10.9174 185.168 11.2482 185.015L43.2457 170.202C43.5766 170.048 43.7303 169.633 43.5891 169.274L41.2042 163.212C41.063 162.853 40.6804 162.686 40.3495 162.839Z" fill="#EBF3FC"/>
<path d="M11.7109 185.002C11.2472 185.001 10.7939 184.853 10.4072 184.575C10.0204 184.298 9.71715 183.904 9.53499 183.441L8.21197 180.079C7.96669 179.453 7.96051 178.746 8.19479 178.115C8.42908 177.484 8.88467 176.979 9.46158 176.712L38.968 163.051C39.5456 162.784 40.197 162.777 40.7793 163.031C41.3616 163.286 41.827 163.78 42.0733 164.406L43.3948 167.768C43.5167 168.078 43.581 168.412 43.5842 168.749C43.5873 169.086 43.5292 169.42 43.4132 169.733C43.2971 170.046 43.1254 170.33 42.9078 170.571C42.6903 170.812 42.4311 171.003 42.1452 171.135L12.6387 184.797C12.3454 184.932 12.0297 185.002 11.7109 185.002ZM39.8928 163.629C39.6716 163.629 39.4527 163.677 39.2492 163.771L9.74274 177.432C9.34178 177.618 9.02529 177.97 8.86275 178.409C8.70022 178.848 8.70492 179.339 8.87582 179.774L10.1988 183.136C10.3701 183.571 10.6935 183.914 11.098 184.091C11.5025 184.267 11.9549 184.262 12.356 184.077L41.8625 170.415C42.0611 170.323 42.2411 170.19 42.3921 170.023C42.5432 169.855 42.6624 169.657 42.7429 169.44C42.8234 169.223 42.8637 168.99 42.8614 168.756C42.859 168.522 42.8142 168.291 42.7294 168.075L41.4142 164.711C41.2867 164.389 41.0745 164.114 40.8039 163.921C40.5333 163.729 40.2164 163.627 39.8928 163.629Z" fill="black"/>
<path d="M15.4067 153.977L23.8128 175.347C23.9777 175.766 24.4246 175.961 24.811 175.782L27.7246 174.433C28.111 174.254 28.2905 173.769 28.1256 173.35L19.7196 151.981C19.5547 151.562 19.1078 151.367 18.7214 151.546L15.8078 152.895C15.4214 153.073 15.2418 153.558 15.4067 153.977Z" fill="#6148FF"/>
<path d="M196.096 147.331C196.034 147.299 195.981 147.268 195.923 147.238C192.877 145.499 182.011 135.669 174.292 130.882C171.616 129.222 172.208 122.372 185.1 119.632C185.971 119.449 186.894 119.283 187.882 119.136C187.882 119.136 200.817 126.271 203.141 136.101C205.426 145.75 199.211 148.866 196.096 147.331Z" fill="#6148FF"/>
<path d="M189.65 141.305C189.59 141.305 189.532 141.289 189.479 141.259C189.427 141.228 189.382 141.184 189.35 141.13C189.317 141.077 189.296 141.015 189.291 140.951C189.285 140.887 189.294 140.822 189.317 140.763C190.37 138.029 191.56 136.506 192.097 135.906C189.312 133.115 180.412 127.208 180.32 127.146C180.278 127.119 180.242 127.084 180.213 127.043C180.184 127.001 180.163 126.954 180.151 126.903C180.139 126.852 180.137 126.8 180.144 126.748C180.151 126.697 180.168 126.647 180.193 126.602C180.218 126.558 180.251 126.519 180.29 126.489C180.329 126.458 180.373 126.437 180.42 126.425C180.467 126.413 180.516 126.412 180.563 126.421C180.611 126.43 180.656 126.45 180.696 126.478C181.091 126.739 190.381 132.917 192.88 135.628C192.915 135.667 192.942 135.713 192.96 135.763C192.978 135.813 192.986 135.867 192.984 135.921C192.982 135.975 192.969 136.028 192.947 136.076C192.925 136.125 192.895 136.168 192.856 136.203C192.841 136.216 191.294 137.667 189.989 141.061C189.961 141.134 189.914 141.196 189.854 141.24C189.793 141.283 189.722 141.306 189.65 141.305Z" fill="black"/>
<path d="M196.096 147.331C199.046 146.36 201.216 144.245 201.139 140.105C200.938 129.625 188.988 121.871 185.101 119.627C185.972 119.444 186.895 119.278 187.883 119.131C187.883 119.131 200.818 126.266 203.142 136.096C205.426 145.75 199.21 148.866 196.096 147.331Z" fill="#EBF3FC"/>
<path d="M197.783 148.095C197.15 148.101 196.524 147.96 195.946 147.682C195.879 147.648 195.824 147.594 195.786 147.526C195.749 147.458 195.731 147.379 195.736 147.299C195.741 147.22 195.768 147.144 195.814 147.082C195.859 147.02 195.921 146.974 195.991 146.951C199.232 145.885 200.843 143.582 200.777 140.109C200.579 129.772 188.593 122.084 184.93 119.973C184.864 119.935 184.811 119.876 184.777 119.803C184.743 119.731 184.731 119.649 184.742 119.569C184.753 119.489 184.787 119.414 184.838 119.356C184.89 119.297 184.957 119.258 185.03 119.242C185.935 119.053 186.877 118.885 187.831 118.742C187.904 118.731 187.978 118.745 188.044 118.781C188.578 119.076 201.15 126.112 203.489 135.999C204.976 142.269 202.881 145.319 201.5 146.575C200.461 147.534 199.147 148.071 197.783 148.095ZM197.286 147.277C198.536 147.432 199.951 146.965 201.035 145.975C202.284 144.838 204.176 142.054 202.787 136.194C200.637 127.098 189.01 120.222 187.812 119.535C187.256 119.62 186.705 119.705 186.163 119.813C190.665 122.553 201.302 130.084 201.496 140.093C201.564 143.554 200.148 145.965 197.286 147.282V147.277Z" fill="black"/>
<path d="M167.794 129.903L175.674 126.378C175.674 126.378 177.8 127.314 178.161 130.445L171.043 135.644L167.794 129.903Z" fill="#EBF3FC"/>
<path d="M171.041 136.037C171.015 136.037 170.99 136.034 170.965 136.029C170.918 136.018 170.873 135.998 170.833 135.969C170.794 135.94 170.76 135.903 170.733 135.859L167.484 130.116C167.457 130.068 167.439 130.014 167.433 129.957C167.427 129.901 167.432 129.844 167.448 129.79C167.465 129.736 167.491 129.686 167.527 129.645C167.563 129.603 167.606 129.57 167.655 129.549L175.535 126.024C175.623 125.985 175.721 125.985 175.808 126.024C175.902 126.067 178.134 127.085 178.517 130.406C178.525 130.478 178.515 130.551 178.487 130.617C178.46 130.682 178.416 130.739 178.361 130.779L171.243 135.978C171.182 136.019 171.112 136.039 171.041 136.037ZM168.322 130.091L171.152 135.093L177.77 130.26C177.428 127.99 176.08 127.049 175.662 126.809L168.322 130.091Z" fill="black"/>
<path d="M172.102 141.41C172.102 141.41 165.293 147.81 158.117 151.709C154.845 153.484 151.496 154.743 148.685 154.632C147.15 154.57 145.093 153.839 142.675 152.599C130.96 146.605 110.953 128.799 102.97 119.13C101.082 116.846 99.4175 114.355 98.0043 111.697C92.6388 101.641 91.8781 90.9894 96.069 86.9412C99.5336 83.5996 104.332 85.4636 109.624 89.483C113.148 92.1519 116.892 95.7849 120.608 99.4621C129.918 108.694 154.701 131.15 154.701 131.15L165.769 127.761C174.83 129.836 172.102 141.41 172.102 141.41Z" fill="#489CFF"/>
<path d="M110.992 97.8048L98.0043 111.7C92.6388 101.641 91.8781 90.9894 96.069 86.9412C99.5336 83.5996 104.332 85.4636 109.624 89.483L110.992 97.8048Z" fill="black"/>
<path d="M158.119 151.711C154.846 153.485 151.497 154.744 148.687 154.634C147.152 154.572 145.094 153.841 142.676 152.601C142.533 149.422 145.188 145.355 150.174 145.026C156.285 144.621 158.195 148.981 158.119 151.711Z" fill="#6148FF"/>
<path d="M151.493 140.808C151.442 140.808 151.392 140.797 151.346 140.774C135.351 132.997 102.606 98.6146 102.277 98.2757C102.243 98.2399 102.215 98.1971 102.197 98.1499C102.178 98.1026 102.168 98.0518 102.167 98.0004C102.166 97.9489 102.175 97.8978 102.192 97.85C102.21 97.8022 102.236 97.7585 102.269 97.7216C102.302 97.6846 102.341 97.6551 102.385 97.6347C102.428 97.6143 102.475 97.6034 102.523 97.6026C102.57 97.6018 102.617 97.6112 102.661 97.6301C102.705 97.6491 102.746 97.6773 102.78 97.7131C103.106 98.052 135.582 132.156 151.515 139.99L165.456 134.949C165.546 134.916 165.646 134.924 165.731 134.97C165.817 135.017 165.882 135.098 165.912 135.197C165.943 135.296 165.936 135.403 165.893 135.496C165.85 135.589 165.775 135.66 165.684 135.693L151.608 140.776C151.572 140.794 151.533 140.805 151.493 140.808Z" fill="black"/>
<path d="M169.718 142.235H169.678C169.583 142.222 169.498 142.169 169.439 142.088C169.381 142.007 169.354 141.904 169.365 141.802C170.396 132.046 165.049 130.414 164.821 130.348C164.728 130.323 164.649 130.258 164.6 130.168C164.551 130.079 164.537 129.972 164.561 129.871C164.585 129.771 164.645 129.684 164.727 129.631C164.81 129.579 164.908 129.563 165.001 129.589C165.063 129.606 171.188 131.426 170.082 141.89C170.072 141.986 170.029 142.075 169.961 142.139C169.894 142.202 169.807 142.237 169.718 142.235Z" fill="black"/>
<path d="M155.741 189.177C155.019 201.528 151.011 208.403 146.198 207.532C145.326 207.392 144.496 207.035 143.773 206.488C141.164 204.504 140.727 200.324 140.336 196.919C139.855 192.654 136.65 175.473 136.088 172.295C135.525 169.116 136.65 164.715 139.975 164.595C142.223 164.517 146.38 165.528 149.33 166.343C151.27 166.88 152.689 167.335 152.689 167.335C152.689 167.335 156.462 176.821 155.741 189.177Z" fill="#6148FF"/>
<path d="M140.558 192.004C140.469 192.003 140.384 191.967 140.318 191.902C140.252 191.837 140.211 191.747 140.202 191.651C140.193 191.555 140.217 191.459 140.27 191.381C140.322 191.303 140.399 191.249 140.486 191.229C142.165 190.885 143.887 190.859 145.574 191.151C146.042 185.154 144.309 170.756 144.291 170.609C144.281 170.507 144.308 170.404 144.366 170.324C144.424 170.243 144.51 170.19 144.603 170.177C144.697 170.164 144.792 170.191 144.867 170.253C144.943 170.314 144.993 170.406 145.007 170.507C145.083 171.13 146.856 185.847 146.256 191.658C146.251 191.712 146.235 191.765 146.209 191.812C146.184 191.859 146.15 191.9 146.109 191.932C146.068 191.964 146.021 191.986 145.972 191.997C145.922 192.009 145.872 192.008 145.822 191.997C145.797 191.997 143.251 191.414 140.635 191.997C140.61 192.002 140.584 192.004 140.558 192.004Z" fill="black"/>
<path d="M155.741 189.177C155.019 201.529 151.011 208.403 146.199 207.532C145.924 207.484 145.652 207.416 145.385 207.329C147.478 206.85 151.063 204.431 152.637 193.851C154.61 180.528 150.75 169.241 149.677 166.438C151.439 166.935 152.695 167.337 152.695 167.337C152.695 167.337 156.463 176.821 155.741 189.177Z" fill="#EBF3FC"/>
<path d="M147.02 208C146.725 207.999 146.43 207.972 146.139 207.919C145.849 207.867 145.563 207.795 145.281 207.704C145.205 207.678 145.138 207.626 145.092 207.556C145.046 207.485 145.022 207.399 145.026 207.312C145.029 207.226 145.059 207.143 145.111 207.076C145.162 207.01 145.233 206.964 145.311 206.946C147.25 206.501 150.733 204.201 152.281 193.788C154.216 180.725 150.522 169.667 149.344 166.588C149.319 166.52 149.311 166.447 149.322 166.375C149.332 166.303 149.361 166.236 149.405 166.181C149.449 166.126 149.506 166.086 149.57 166.064C149.634 166.043 149.703 166.041 149.768 166.059C151.514 166.55 152.784 166.955 152.796 166.96C152.847 166.977 152.894 167.005 152.934 167.043C152.973 167.081 153.005 167.128 153.026 167.181C153.063 167.277 156.82 176.894 156.1 189.21C155.61 197.603 153.548 203.952 150.442 206.623C149.376 207.536 148.227 208 147.02 208ZM146.77 207.209C147.906 207.28 148.987 206.87 149.996 206.004C152.94 203.462 154.903 197.326 155.381 189.154C156.038 177.917 152.918 168.989 152.428 167.66C152.101 167.559 151.314 167.321 150.281 167.016C151.687 170.914 154.83 181.527 152.995 193.914C151.673 202.795 148.898 206.048 146.77 207.207V207.209Z" fill="black"/>
<path d="M137.056 171.798L133.409 169.688L128.034 166.577L131.524 160.307L133.348 161.717L139.465 166.436C139.465 166.436 141.268 170.293 137.056 171.798Z" fill="#EBF3FC"/>
<path d="M137.057 172.19C136.997 172.19 136.939 172.174 136.886 172.144L127.863 166.923C127.82 166.898 127.781 166.864 127.751 166.822C127.72 166.781 127.698 166.733 127.685 166.682C127.672 166.631 127.669 166.577 127.675 166.525C127.682 166.472 127.698 166.421 127.724 166.376L131.213 160.106C131.239 160.06 131.273 160.02 131.314 159.989C131.354 159.957 131.4 159.936 131.449 159.925C131.498 159.914 131.548 159.914 131.597 159.925C131.645 159.936 131.691 159.958 131.732 159.989L139.672 166.118C139.719 166.155 139.758 166.204 139.784 166.261C139.817 166.332 140.596 168.031 139.956 169.714C139.531 170.832 138.592 171.658 137.168 172.166C137.132 172.18 137.095 172.188 137.057 172.19ZM128.539 166.428L137.088 171.375C138.222 170.939 138.962 170.283 139.289 169.421C139.734 168.252 139.304 167.027 139.175 166.71L131.629 160.886L128.539 166.428Z" fill="black"/>
<path d="M133.409 169.69L128.034 166.579L131.524 160.309L133.348 161.719C134.098 164.311 134.119 167.086 133.409 169.69Z" fill="black"/>
<path d="M114.799 107.128C114.773 107.128 114.746 107.125 114.72 107.118L112.017 106.467C111.958 106.453 111.902 106.423 111.856 106.379C111.81 106.335 111.776 106.279 111.755 106.217L109.106 98.1235C109.09 98.075 109.083 98.0235 109.085 97.9721C109.088 97.9207 109.1 97.8703 109.12 97.8238C109.14 97.7773 109.169 97.7356 109.204 97.7011C109.239 97.6666 109.281 97.64 109.325 97.6228C109.37 97.6055 109.417 97.598 109.465 97.6006C109.512 97.6032 109.559 97.616 109.602 97.6381C109.644 97.6602 109.683 97.6912 109.715 97.7295C109.746 97.7677 109.771 97.8123 109.787 97.8608L112.367 105.749L114.879 106.354C114.967 106.374 115.044 106.429 115.097 106.507C115.15 106.586 115.173 106.684 115.163 106.78C115.153 106.877 115.11 106.966 115.043 107.03C114.976 107.095 114.889 107.13 114.799 107.128Z" fill="black"/>
<path d="M136.936 116.396C133.206 127.229 122.253 146.804 122.253 146.804L132.96 157.376C134.644 170.036 125.502 172.906 125.502 172.906C125.502 172.906 113.787 166.089 107.303 161.511C105.714 160.389 104.44 159.401 103.727 158.681C100.82 155.736 99.238 152.03 100.306 145.582C100.608 143.827 101.026 142.099 101.556 140.409C104.563 130.621 114.789 106.737 114.789 106.737C114.789 106.737 107.576 86.999 113.948 82.2018C121.406 76.5895 132.956 88.3359 135.842 93.5551C138.729 98.7742 140.664 105.563 136.936 116.396Z" fill="#489CFF"/>
<path d="M126.076 140.131C126.013 140.131 125.95 140.113 125.896 140.078C125.841 140.044 125.795 139.995 125.764 139.935C125.732 139.876 125.716 139.808 125.715 139.74C125.715 139.671 125.732 139.604 125.763 139.544C129.462 132.536 134.343 122.804 136.599 116.255C140.473 105.005 138.07 98.32 135.545 93.7549C133.636 90.3049 127.086 82.8845 120.593 81.3679C118.113 80.7901 115.951 81.1781 114.165 82.5202C108.1 87.0954 115.067 106.396 115.137 106.582C115.155 106.632 115.163 106.685 115.162 106.738C115.161 106.791 115.15 106.843 115.129 106.891C115.098 106.962 112.016 114.167 108.78 122.176C108.762 122.224 108.735 122.269 108.701 122.307C108.667 122.344 108.626 122.374 108.582 122.394C108.537 122.414 108.489 122.424 108.44 122.423C108.392 122.423 108.344 122.412 108.299 122.391C108.255 122.37 108.215 122.339 108.181 122.301C108.148 122.262 108.122 122.217 108.105 122.168C108.089 122.119 108.081 122.066 108.083 122.014C108.086 121.961 108.098 121.909 108.119 121.862C111.098 114.489 113.947 107.797 114.409 106.713C113.687 104.691 107.456 86.6108 113.753 81.8678C115.71 80.3953 118.063 79.9683 120.745 80.5935C127.45 82.1779 134.198 89.8033 136.163 93.3618C138.772 98.0777 141.255 104.976 137.274 116.54C135.003 123.138 130.101 132.909 126.39 139.944C126.357 140.002 126.31 140.05 126.255 140.083C126.2 140.115 126.138 140.132 126.076 140.131Z" fill="black"/>
<path d="M114.799 107.128C114.728 107.128 114.659 107.105 114.6 107.062C114.541 107.02 114.495 106.959 114.468 106.888C114.44 106.818 114.433 106.74 114.446 106.664C114.459 106.588 114.492 106.519 114.542 106.464C114.652 106.342 117.316 103.436 123.634 100.824C123.678 100.806 123.726 100.797 123.773 100.799C123.82 100.801 123.867 100.812 123.91 100.833C123.953 100.854 123.992 100.884 124.025 100.922C124.057 100.959 124.083 101.003 124.099 101.051C124.116 101.099 124.124 101.151 124.123 101.202C124.121 101.253 124.111 101.304 124.091 101.351C124.072 101.398 124.044 101.44 124.01 101.475C123.975 101.511 123.934 101.538 123.89 101.556C117.739 104.098 115.084 106.979 115.057 107.011C115.023 107.048 114.983 107.078 114.939 107.098C114.895 107.118 114.847 107.128 114.799 107.128Z" fill="black"/>
<path d="M110.59 159.271C109.653 160.603 108.501 161.304 107.31 161.511C105.721 160.389 104.446 159.401 103.734 158.681C100.827 155.736 99.2448 152.03 100.313 145.582C101.04 144.147 102.131 143.149 103.672 143.019C111.254 142.366 114.14 154.243 110.59 159.271Z" fill="#6148FF"/>
<path d="M127.794 158.157C127.72 158.157 127.648 158.132 127.587 158.086L113.873 147.646C113.807 147.596 113.758 147.523 113.734 147.439C113.711 147.355 113.714 147.265 113.743 147.183C117.292 137.25 130.382 103.824 131.478 101.026C129.148 96.8999 122.43 89.4694 122.361 89.3932C122.294 89.319 122.257 89.219 122.257 89.115C122.258 89.0111 122.297 88.9118 122.366 88.839C122.434 88.7662 122.526 88.7259 122.622 88.7268C122.718 88.7278 122.809 88.77 122.876 88.8441C123.162 89.1593 129.905 96.6254 132.192 100.796C132.221 100.848 132.238 100.908 132.242 100.969C132.245 101.03 132.236 101.092 132.214 101.148C132.075 101.495 118.35 136.511 114.516 147.182L128 157.445C128.062 157.493 128.109 157.561 128.134 157.64C128.159 157.719 128.159 157.804 128.137 157.883C128.114 157.962 128.068 158.032 128.006 158.081C127.945 158.13 127.87 158.157 127.794 158.157Z" fill="black"/>
<path d="M124.243 170.293C124.16 170.293 124.079 170.262 124.015 170.204C123.95 170.147 123.906 170.067 123.89 169.979C123.873 169.89 123.886 169.798 123.925 169.718C123.964 169.639 124.027 169.576 124.104 169.541C131.4 166.238 130.155 156.42 130.141 156.324C130.133 156.272 130.135 156.219 130.146 156.169C130.157 156.118 130.177 156.07 130.205 156.028C130.233 155.986 130.269 155.95 130.31 155.923C130.351 155.896 130.397 155.878 130.445 155.871C130.492 155.863 130.541 155.866 130.587 155.879C130.634 155.892 130.677 155.915 130.716 155.947C130.754 155.978 130.786 156.018 130.81 156.063C130.834 156.108 130.849 156.158 130.855 156.21C130.869 156.315 132.189 166.731 124.38 170.275C124.336 170.29 124.29 170.297 124.243 170.293Z" fill="black"/>
<path d="M34.4808 50.9379L28.6061 52.8477C28.6061 52.8477 12.7095 50.5787 9.73225 50.3601C6.75505 50.1415 5.28051 55.8656 9.19804 57.611C13.1156 59.3563 24.8572 64.2434 27.4299 64.306C30.0025 64.3687 39.9354 61.6744 39.9354 61.6744L34.4808 50.9379Z" fill="#EBF3FC"/>
<path d="M27.5121 64.6972H27.4168C24.7848 64.6328 13.0463 59.7458 9.05999 57.9716C6.80757 56.9684 6.18901 54.7028 6.57483 52.9016C6.96846 51.0664 8.26961 49.865 9.75665 49.9683C12.637 50.1802 27.2403 52.2576 28.5774 52.4491L34.3849 50.5631C34.4641 50.5373 34.549 50.5417 34.6254 50.5757C34.7019 50.6096 34.7653 50.671 34.8051 50.7495L40.2581 61.4843C40.2849 61.5368 40.3002 61.5953 40.3029 61.6552C40.3055 61.7152 40.2954 61.7749 40.2734 61.83C40.2514 61.885 40.2179 61.9338 40.1758 61.9726C40.1336 62.0114 40.0837 62.0391 40.0301 62.0537C39.6193 62.1605 30.2394 64.6972 27.5121 64.6972ZM9.57077 50.7444C8.34459 50.7444 7.52922 51.9306 7.28242 53.0795C6.98876 54.4487 7.35115 56.3618 9.33959 57.2463C13.1275 58.9409 24.9379 63.855 27.4371 63.9126C29.6083 63.9736 37.4168 61.9368 39.3912 61.4132L34.3053 51.4019L28.7148 53.2218C28.6644 53.239 28.611 53.2437 28.5586 53.2354C28.4024 53.2134 12.6401 50.9647 9.70667 50.7495L9.57077 50.7444Z" fill="black"/>
<path d="M67.031 35.9446L32.9463 50.6988C32.9463 50.6988 33.04 66.2393 42.976 71.1636L69.5115 56.1654C69.5115 56.1654 77.3809 44.1156 67.031 35.9446Z" fill="#6148FF"/>
<path d="M43.9912 68.7152C43.9252 68.7155 43.8604 68.6962 43.8038 68.6593C35.7797 63.3825 35.8765 51.3971 35.8781 51.2768C35.8798 51.173 35.9194 51.0741 35.9882 51.002C36.057 50.9299 36.1495 50.8904 36.2452 50.8921C36.3409 50.8939 36.432 50.9369 36.4985 51.0116C36.565 51.0863 36.6014 51.1865 36.5998 51.2904C36.5998 51.4056 36.5107 62.9504 44.1771 67.9899C44.244 68.0343 44.2957 68.1012 44.3244 68.1803C44.3531 68.2595 44.3573 68.3467 44.3363 68.4286C44.3153 68.5106 44.2703 68.5829 44.208 68.6346C44.1457 68.6863 44.0696 68.7146 43.9912 68.7152Z" fill="black"/>
<path d="M70.1815 35.5547L85.3862 37.1746L107.04 35.4089C107.04 35.4089 125.266 61.7063 135.974 85.9821C135.974 85.9821 127.192 102.165 109.868 104.646C92.5434 107.126 85.0847 100.86 85.0847 100.86C85.0847 100.86 83.1588 85.2026 76.9029 74.5017C72.1731 66.412 62.5636 54.4419 61.9216 44.1696C61.6092 39.1623 65.5705 35.07 70.1815 35.5547Z" fill="#6148FF"/>
<path d="M66.1535 57.426C66.0899 57.4257 66.0275 57.4073 65.9727 57.3724C65.9178 57.3376 65.8724 57.2877 65.841 57.2278C63.195 52.173 61.797 47.9079 61.5658 44.2036C61.4371 42.1509 62.0036 40.1178 63.1591 38.4863C63.2175 38.404 63.3036 38.3503 63.3985 38.337C63.4934 38.3236 63.5893 38.3517 63.6652 38.4151C63.741 38.4785 63.7905 38.5719 63.8028 38.6749C63.8151 38.7778 63.7892 38.8819 63.7308 38.9641C62.6828 40.4444 62.169 42.2889 62.2859 44.1511C62.5108 47.7418 63.8776 51.8917 66.469 56.8431C66.4998 56.9027 66.5157 56.9701 66.5151 57.0385C66.5145 57.1068 66.4973 57.1738 66.4654 57.2328C66.4335 57.2917 66.3879 57.3406 66.3332 57.3745C66.2784 57.4084 66.2165 57.4262 66.1535 57.426Z" fill="black"/>
<path d="M102.87 102.424C93.676 102.424 87.0937 99.6978 87.0094 99.6622C86.9652 99.6435 86.9248 99.6155 86.8905 99.5799C86.8563 99.5443 86.8288 99.5017 86.8098 99.4546C86.7713 99.3594 86.7692 99.2515 86.804 99.1547C86.8388 99.0578 86.9076 98.9799 86.9953 98.9382C87.0831 98.8964 87.1825 98.8941 87.2718 98.9318C87.3843 98.981 98.598 103.617 112.173 100.648C125.03 97.8423 133.117 84.7656 133.197 84.6334C133.223 84.5905 133.256 84.5535 133.296 84.5247C133.335 84.4959 133.379 84.4758 133.426 84.4655C133.472 84.4551 133.52 84.4549 133.567 84.4647C133.613 84.4744 133.658 84.4941 133.697 84.5224C133.737 84.5508 133.771 84.5874 133.797 84.63C133.824 84.6727 133.843 84.7206 133.852 84.771C133.862 84.8214 133.862 84.8734 133.853 84.9239C133.844 84.9745 133.826 85.0226 133.8 85.0655C133.718 85.1994 125.465 98.5472 112.316 101.418C109.206 102.091 106.042 102.429 102.87 102.424Z" fill="black"/>
<path d="M83.2179 34.9566C78.7115 35.4887 72.1104 42.3956 77.9649 48.6603C77.9649 48.6603 79.1879 46.376 80.8124 44.6137C80.8124 44.6137 81.4747 47.3538 82.7368 49.6973C82.7368 49.6973 88.2507 46.8268 89.4332 41.345C90.6156 35.8632 85.9842 34.6296 83.2179 34.9566Z" fill="#EBF3FC"/>
<path d="M82.7373 50.0957C82.6741 50.0958 82.6119 50.0778 82.5571 50.0436C82.5022 50.0094 82.4567 49.9602 82.4249 49.9008C81.6821 48.4661 81.084 46.9486 80.6411 45.3747C79.7555 46.4535 78.9643 47.6193 78.2778 48.857C78.25 48.9086 78.2118 48.9526 78.166 48.9858C78.1202 49.0189 78.068 49.0402 78.0134 49.048C77.9588 49.0559 77.9033 49.0501 77.8511 49.031C77.7989 49.012 77.7515 48.9803 77.7123 48.9383C74.9007 45.9339 75.0459 43.0261 75.6598 41.1147C76.8251 37.4816 80.4646 34.8873 83.1794 34.562C84.9351 34.3569 87.4968 34.7399 88.9385 36.5073C89.9413 37.7358 90.2256 39.388 89.7867 41.4367C88.5777 47.0286 83.1262 49.933 82.8951 50.0533C82.8461 50.0802 82.7922 50.0947 82.7373 50.0957ZM80.8113 44.2208C80.8913 44.2209 80.969 44.2497 81.0323 44.3028C81.0956 44.3558 81.1409 44.43 81.1612 44.5139C81.5789 46.131 82.1549 47.6949 82.8795 49.179C84.0228 48.5012 88.1106 45.7679 89.0838 41.2604C89.468 39.4812 89.24 38.0578 88.398 37.0241C87.2203 35.5804 84.9616 35.1381 83.2575 35.3381C80.7582 35.6329 77.3812 38.1256 76.3409 41.3655C75.602 43.6667 76.1425 45.956 77.9029 48.0165C78.6667 46.69 79.5567 45.4542 80.5583 44.3292C80.6264 44.2586 80.7172 44.2197 80.8113 44.2208Z" fill="black"/>
<path d="M82.8985 25.4556L84.3699 30.1562L86.8691 38.2187C85.0306 41.0808 82.6923 42.2399 79.7323 41.2689L78.8154 37.4274L77.4268 31.6101L82.8985 25.4556Z" fill="#EBF3FC"/>
<path d="M81.7027 41.999C81.0013 41.9928 80.3046 41.8752 79.6346 41.6499C79.5753 41.6306 79.5216 41.595 79.4787 41.5466C79.4357 41.4983 79.405 41.4387 79.3894 41.3737L77.0838 31.7149C77.0684 31.6502 77.0684 31.5823 77.084 31.5176C77.0996 31.453 77.1302 31.3937 77.1729 31.3455L82.6399 25.1859C82.6829 25.1376 82.7366 25.102 82.7958 25.0827C82.8551 25.0634 82.9179 25.0609 82.9783 25.0756C83.0387 25.0902 83.0946 25.1214 83.1407 25.1663C83.1867 25.2111 83.2214 25.2681 83.2413 25.3316L87.2197 38.0948C87.2379 38.1528 87.2432 38.2146 87.2354 38.2752C87.2275 38.3358 87.2066 38.3936 87.1744 38.4439C85.653 40.8094 83.8192 41.999 81.7027 41.999ZM80.036 40.9602C82.6071 41.7228 84.7221 40.8027 86.4747 38.1558L82.7461 26.1908L77.8336 31.7285L80.036 40.9602Z" fill="black"/>
<path d="M81.0116 27.582C81.6926 29.7019 84.3028 36.8053 79.3543 39.6589L77.4346 31.615L81.0116 27.582Z" fill="black"/>
<path d="M70.5316 29.1188C71.5297 32.9942 73.3432 37.5135 77.5857 35.958C82.6325 34.1075 85.3489 29.4967 84.5397 24.1335C83.7306 18.7704 80.9705 16.1777 75.1536 17.9062C74.6587 18.052 74.1759 18.2424 73.7103 18.4755C70.4691 20.1107 69.2476 23.4913 70.0333 27.038C70.1817 27.6785 70.341 28.3868 70.5316 29.1188Z" fill="#EBF3FC"/>
<path d="M76.3081 36.7443C75.4845 36.8223 74.6581 36.633 73.9339 36.2004C71.4596 34.7194 70.4006 30.7542 69.6024 27.1516C68.5949 22.6069 70.7802 18.7027 75.0398 17.4369C75.1528 17.4091 75.2713 17.4296 75.3707 17.4943C75.4701 17.5589 75.5426 17.6627 75.5732 17.7839C75.6038 17.9052 75.5901 18.0345 75.535 18.1451C75.4798 18.2556 75.3875 18.3388 75.2772 18.3774C71.4612 19.511 69.5758 22.8679 70.4756 26.9246C71.0191 29.3799 72.0376 33.9501 74.3681 35.3481C75.2585 35.8818 76.2644 35.9293 77.4422 35.4972C79.3166 34.8075 80.8692 33.7349 82.0376 32.3098C82.1167 32.2131 82.228 32.1546 82.3469 32.1469C82.4659 32.1393 82.5827 32.1833 82.6718 32.2691C82.7608 32.3549 82.8148 32.4756 82.8219 32.6047C82.8289 32.7337 82.7884 32.8605 82.7093 32.9571C81.4597 34.4822 79.7321 35.6853 77.7311 36.4207C77.2712 36.5929 76.7931 36.7016 76.3081 36.7443Z" fill="black"/>
<path d="M86.6294 24.5048C86.2526 25.3925 85.8052 26.243 85.2923 27.0465L82.9774 27.6972L82.2495 25.7773C82.2495 25.7773 80.1064 26.0366 79.5629 24.8759C79.5493 24.8496 79.5373 24.8224 79.5269 24.7945C79.3707 24.4099 78.7459 22.6831 78.5491 19.8533C78.5491 19.8533 74.8331 22.5391 72.6806 23.2034C71.8996 23.4423 70.9343 23.2881 70.0033 22.9899C68.1414 22.3934 66.1576 19.6449 66.128 17.5386C66.128 17.525 66.128 17.5114 66.128 17.4979C66.1186 14.4054 67.8946 16.2151 67.8946 16.2151C67.8946 16.2151 67.9196 13.7191 69.2879 13.2819C70.6563 12.8447 71.9074 14.9053 71.9074 14.9053C74.4808 13.7222 77.236 13.0738 80.0299 12.9938C85.5719 12.8701 84.8721 17.159 84.8721 17.159C84.8721 17.159 89.0646 17.786 86.6294 24.5048Z" fill="black"/>
<path d="M82.7745 27.7228C82.22 25.4318 83.4212 22.9866 85.5393 22.4071C85.9603 22.2899 86.3976 22.2572 86.8295 22.3105C89.5521 22.6494 89.7786 29.3749 83.304 29.9104L82.7745 27.7228Z" fill="#EBF3FC"/>
<path d="M83.3047 30.3017C83.209 30.3055 83.1158 30.268 83.0456 30.1972C82.9755 30.1265 82.9341 30.0285 82.9306 29.9247C82.927 29.8209 82.9617 29.7198 83.0269 29.6437C83.092 29.5676 83.1824 29.5227 83.2781 29.5188C86.9098 29.2172 88.2359 26.9567 88.2766 25.1131C88.3 23.8252 87.6767 22.8102 86.7958 22.7001C86.4072 22.6525 86.0139 22.6824 85.6352 22.7882C84.1544 23.1932 83.075 24.6911 83.011 26.428C83.0098 26.4797 82.9991 26.5305 82.9795 26.5776C82.9599 26.6246 82.9318 26.6669 82.8968 26.702C82.8619 26.7371 82.8208 26.7642 82.776 26.7818C82.7312 26.7993 82.6837 26.8069 82.6361 26.8042C82.5887 26.8022 82.5421 26.7902 82.4991 26.7687C82.456 26.7471 82.4172 26.7166 82.385 26.6789C82.3528 26.6411 82.3278 26.5968 82.3114 26.5485C82.2949 26.5002 82.2875 26.4489 82.2893 26.3975C82.3659 24.315 83.6686 22.5187 85.4571 22.029C85.9204 21.8998 86.4017 21.8636 86.877 21.9223C88.136 22.0799 89.0263 23.4287 88.9966 25.1283C88.9498 27.4719 87.1816 29.9865 83.3328 30.3H83.3047V30.3017Z" fill="black"/>
<path d="M141.271 175.684C141.271 175.684 152.645 174.159 152.712 157.974C152.78 141.79 141.917 141.059 141.917 141.059L108.467 140.915C108.467 140.915 118.795 169.397 125.526 172.433C132.256 175.47 141.271 175.684 141.271 175.684Z" fill="#EBF3FC"/>
<path d="M141.27 176.075H141.263C141.172 176.075 132.101 175.821 125.386 172.793C118.593 169.727 108.556 142.227 108.131 141.058C108.109 140.998 108.101 140.934 108.108 140.871C108.114 140.807 108.135 140.746 108.168 140.693C108.201 140.641 108.246 140.597 108.298 140.568C108.35 140.538 108.408 140.522 108.467 140.522L141.917 140.666C142.05 140.666 153.139 141.602 153.072 157.974C153.004 174.347 141.431 176.056 141.314 176.072L141.27 176.075ZM109.001 141.307C110.464 145.235 119.652 169.358 125.663 172.069C132.067 174.96 140.703 175.274 141.252 175.289C141.981 175.182 152.287 173.384 152.351 157.969C152.415 142.356 142.325 141.476 141.895 141.446L109.001 141.307Z" fill="black"/>
<path d="M129.723 150.239L145.515 150.747C145.515 150.747 149.107 158.049 144.648 164.981L129.988 164.906L129.723 150.239Z" fill="#EBF3FC"/>
<path d="M144.648 165.379L129.988 165.305C129.894 165.304 129.803 165.264 129.736 165.192C129.669 165.12 129.631 165.022 129.629 164.92L129.356 150.245C129.355 150.192 129.364 150.139 129.382 150.09C129.401 150.041 129.428 149.996 129.463 149.959C129.534 149.885 129.629 149.844 129.727 149.845L145.519 150.354C145.584 150.355 145.647 150.374 145.702 150.411C145.757 150.447 145.801 150.499 145.832 150.561C145.869 150.635 149.482 158.155 144.943 165.21C144.91 165.262 144.866 165.304 144.814 165.334C144.763 165.363 144.706 165.379 144.648 165.379ZM130.341 164.523L144.459 164.595C148.186 158.616 145.797 152.321 145.285 151.13L130.091 150.637L130.341 164.523Z" fill="black"/>
<path d="M141.916 141.058C141.916 141.058 135.319 145.25 135.852 154.287C136.385 163.324 144.648 164.986 144.648 164.986L116.391 164.84L108.462 140.914L141.916 141.058Z" fill="#EBF3FC"/>
<path d="M144.648 165.379L116.391 165.232C116.317 165.231 116.245 165.206 116.185 165.159C116.125 165.113 116.079 165.048 116.054 164.973L108.127 141.046C108.107 140.987 108.101 140.923 108.109 140.861C108.117 140.799 108.138 140.739 108.171 140.688C108.205 140.637 108.249 140.595 108.301 140.566C108.352 140.537 108.409 140.522 108.467 140.522L141.918 140.666C141.997 140.667 142.073 140.695 142.136 140.748C142.198 140.8 142.244 140.873 142.264 140.956C142.285 141.038 142.28 141.126 142.25 141.206C142.22 141.285 142.167 141.351 142.099 141.395C142.035 141.436 135.695 145.584 136.213 154.261C136.722 162.88 144.389 164.534 144.715 164.598C144.763 164.603 144.809 164.618 144.851 164.642C144.893 164.666 144.93 164.699 144.96 164.738C144.99 164.778 145.013 164.824 145.027 164.873C145.041 164.922 145.046 164.974 145.042 165.025C145.037 165.076 145.024 165.126 145.001 165.172C144.979 165.217 144.949 165.258 144.913 165.291C144.876 165.323 144.834 165.348 144.788 165.363C144.743 165.379 144.695 165.384 144.648 165.379ZM116.649 164.452L142.382 164.585C139.811 163.38 135.859 160.528 135.492 154.314C135.075 147.255 138.958 143.035 140.802 141.447L108.983 141.308L116.649 164.452Z" fill="black"/>
<path d="M68.6006 52.939C68.6006 52.939 75.839 56.6263 76.4935 66.6731C77.1479 76.72 71.017 82.2865 71.017 82.2865L58.5568 81.5629C58.5568 81.5629 55.2563 57.5667 68.6006 52.939Z" fill="#EBF3FC"/>
<path d="M71.0171 82.6864H70.9984L58.5382 81.9646C58.4544 81.9595 58.3748 81.9228 58.3133 81.861C58.2517 81.7991 58.2119 81.7159 58.2008 81.6257C58.1664 81.3816 55.0111 57.2431 68.4929 52.5696C68.5799 52.5392 68.6743 52.5458 68.7569 52.5882C68.8318 52.6255 76.1936 56.4857 76.8559 66.6528C77.5151 76.7827 71.3139 82.5373 71.2514 82.5949C71.1858 82.6546 71.1027 82.6871 71.0171 82.6864ZM58.8756 81.1986L70.889 81.8951C71.6794 81.1088 76.72 75.7151 76.1343 66.7087C75.5485 57.7023 69.5144 53.91 68.571 53.3694C56.6497 57.6633 58.5569 78.3739 58.8756 81.1919V81.1986Z" fill="black"/>
<path d="M65.9536 69.4927C65.9536 69.4927 66.7534 77.5892 71.0177 82.2881L58.5575 81.5646L56.958 68.842L65.9536 69.4927Z" fill="#EBF3FC"/>
<path d="M71.0175 82.6866H70.9987L58.5385 81.9647C58.4544 81.96 58.3746 81.9235 58.3127 81.8616C58.2508 81.7998 58.2107 81.7163 58.1996 81.6258L56.6 68.9033C56.5927 68.8458 56.5973 68.7872 56.6135 68.7318C56.6297 68.6764 56.657 68.6257 56.6935 68.5832C56.7299 68.5407 56.7747 68.5075 56.8245 68.4861C56.8742 68.4647 56.9278 68.4555 56.9812 68.4593L65.9768 69.11C66.0615 69.1163 66.1414 69.1547 66.2025 69.2186C66.2637 69.2824 66.3021 69.3676 66.3111 69.4591C66.3189 69.5388 67.1499 77.4776 71.2736 82.0206C71.3234 82.0756 71.3572 82.1452 71.3707 82.2209C71.3842 82.2965 71.3768 82.3748 71.3494 82.4459C71.3221 82.517 71.276 82.5778 71.2169 82.6206C71.1579 82.6634 71.0885 82.6864 71.0175 82.6866ZM58.8744 81.1988L70.1552 81.8393C66.7828 77.5674 65.8222 71.3621 65.6332 69.8556L57.3764 69.2592L58.8744 81.1988Z" fill="black"/>
<path d="M141.271 175.684H72.9516C72.9516 175.684 57.2237 169.753 50.8256 151.252C44.4276 132.751 26.5754 115.104 17.2423 105.278C7.90928 95.4512 -4.74773 69.8622 9.31353 49.9041L68.6014 52.9406C68.6014 52.9406 56.9066 61.5827 61.3567 78.5822C64.6666 91.2387 74.5511 100.792 87.4768 111.927C100.402 123.062 109.198 134.336 113.864 148.068C118.23 160.928 129.372 174.794 141.271 175.684Z" fill="#EBF3FC"/>
<path d="M141.27 176.075H72.951C72.9106 176.075 72.8704 176.068 72.8323 176.053C72.6761 175.994 56.8701 169.851 50.4955 151.389C44.627 134.412 28.7944 117.882 19.3349 108.009C18.5101 107.149 17.7276 106.332 16.9919 105.563C8.12742 96.2173 -5.48242 70.2605 9.02558 49.6703C9.06154 49.6209 9.1077 49.5814 9.16034 49.5549C9.21297 49.5284 9.27062 49.5157 9.32861 49.5178L68.6165 52.5544C68.6922 52.5582 68.7649 52.5877 68.8242 52.6388C68.8836 52.6899 68.9267 52.76 68.9472 52.8392C68.9678 52.9183 68.9649 53.0025 68.9389 53.0797C68.9129 53.157 68.8651 53.2234 68.8023 53.2695C68.6883 53.3542 57.3778 61.9573 61.7014 78.4807C65.0582 91.3167 75.4612 101.086 87.698 111.626C101.361 123.386 109.782 134.925 114.204 147.926C118.482 160.528 129.432 174.399 141.297 175.286C141.394 175.289 141.485 175.335 141.55 175.411C141.616 175.488 141.651 175.59 141.648 175.695C141.644 175.8 141.602 175.898 141.532 175.97C141.461 176.041 141.367 176.079 141.27 176.075ZM73.0104 175.292H137.198C126.652 172.019 117.389 159.599 113.52 148.204C109.146 135.337 100.799 123.908 87.2466 112.232C74.9067 101.606 64.4209 91.7488 61.0047 78.6806C57.2231 64.2297 65.0441 55.635 67.6136 53.2746L9.48637 50.3041C-4.54521 70.4503 8.80221 95.8343 17.4933 104.997C18.2227 105.764 19.0037 106.581 19.8285 107.44C29.3318 117.363 45.2393 133.971 51.1641 151.113C57.2356 168.677 71.9904 174.881 73.0151 175.292H73.0104Z" fill="black"/>
<path d="M11.3567 63.4756C10.5601 63.5586 9.92436 68.571 10.457 71.8974C10.9897 75.2237 11.7238 76.2354 11.9893 76.5234C12.2549 76.8115 22.9234 77.3182 23.4498 77.247C23.9762 77.1758 23.1827 73.5597 23.1171 71.1026C23.0515 68.6456 23.3842 65.248 23.3842 64.7414C23.3842 64.2347 12.3908 63.3688 11.3567 63.4756Z" fill="#6148FF"/>
<path d="M29.6832 71.8058C29.6915 72.2249 29.8449 72.6253 30.1129 72.9273C30.3809 73.2293 30.7438 73.4109 31.1296 73.4359L52.348 74.8119C52.585 74.8271 52.8222 74.7878 53.0442 74.6964C53.2661 74.605 53.4677 74.4636 53.6356 74.2816C53.8036 74.0996 53.9341 73.881 54.0185 73.6403C54.103 73.3996 54.1394 73.1423 54.1256 72.8852C54.1028 72.434 53.9264 72.0081 53.6306 71.69C53.3347 71.3719 52.9406 71.1843 52.5245 71.1635L31.292 70.0943C31.0808 70.0837 30.8699 70.1205 30.6723 70.2023C30.4748 70.2842 30.2949 70.4093 30.144 70.5699C29.993 70.7305 29.8742 70.9231 29.7949 71.1357C29.7156 71.3484 29.6776 71.5765 29.6832 71.8058Z" fill="#489CFF"/>
<path d="M16.3739 86.7294C15.6101 86.8649 16.7488 91.1657 18.4577 93.943C20.1665 96.7203 21.2552 97.5184 21.6239 97.7421C21.9925 97.9658 32.8032 97.5337 33.3093 97.4286C33.8154 97.3236 31.7379 94.3243 30.8023 92.2451C29.8666 90.1659 28.995 87.2581 28.8169 86.8226C28.6389 86.3871 17.3596 86.5549 16.3739 86.7294Z" fill="#6148FF"/>
<path d="M37.8871 92.3742C37.8954 92.7933 38.0488 93.1937 38.3168 93.4957C38.5848 93.7977 38.9477 93.9793 39.3335 94.0043L60.5503 95.3803C60.7873 95.3956 61.0246 95.3562 61.2465 95.2648C61.4685 95.1734 61.6701 95.0321 61.838 94.85C62.0059 94.668 62.1364 94.4494 62.2209 94.2088C62.3053 93.9681 62.3418 93.7107 62.3279 93.4536C62.3033 93.0042 62.1263 92.5806 61.831 92.2643C61.5357 91.948 61.143 91.7614 60.7284 91.7404L39.4959 90.6712C39.2854 90.6607 39.0751 90.6972 38.8781 90.7785C38.6811 90.8599 38.5017 90.9842 38.3508 91.1439C38.1999 91.3036 38.0809 91.4952 38.0012 91.7068C37.9214 91.9184 37.8826 92.1456 37.8871 92.3742Z" fill="#489CFF"/>
<path d="M30.2304 106.01C29.4666 106.145 30.6053 110.446 32.3141 113.223C34.023 116.001 35.1117 116.799 35.4803 117.022C35.849 117.246 46.6597 116.814 47.1657 116.709C47.6718 116.604 45.5944 113.605 44.6587 111.525C43.7231 109.446 42.8515 106.538 42.6734 106.103C42.4953 105.667 31.2207 105.835 30.2304 106.01Z" fill="#6148FF"/>
<path d="M51.7436 111.663C51.7674 112.081 51.9356 112.474 52.2146 112.764C52.4936 113.055 52.863 113.22 53.2494 113.228L74.4928 113.681C74.7302 113.686 74.966 113.636 75.1845 113.535C75.403 113.434 75.5993 113.284 75.7605 113.095C75.9217 112.906 76.044 112.682 76.1195 112.437C76.195 112.193 76.2219 111.934 76.1985 111.678C76.1576 111.23 75.9652 110.813 75.6583 110.51C75.3514 110.206 74.9518 110.037 74.5365 110.034L53.2853 109.883C53.0741 109.882 52.8651 109.929 52.6711 110.019C52.4771 110.109 52.3024 110.242 52.1578 110.409C52.0131 110.576 51.9017 110.774 51.8305 110.989C51.7592 111.205 51.7297 111.434 51.7436 111.663Z" fill="#489CFF"/>
<path d="M46.3047 126.303C45.5471 126.473 46.8498 130.719 48.6633 133.42C50.4768 136.121 51.5952 136.867 51.9717 137.074C52.3481 137.281 63.1338 136.362 63.6352 136.235C64.1366 136.108 61.9467 133.204 60.9314 131.168C59.9161 129.133 58.9351 126.268 58.7446 125.848C58.554 125.427 47.2887 126.083 46.3047 126.303Z" fill="#6148FF"/>
<path d="M68.0147 129.906C68.0546 130.323 68.2374 130.708 68.5267 130.985C68.816 131.262 69.1908 131.411 69.5768 131.402L90.8202 130.894C91.0576 130.888 91.2912 130.828 91.5056 130.718C91.72 130.607 91.9104 130.448 92.0642 130.252C92.218 130.056 92.3317 129.826 92.3978 129.579C92.4639 129.331 92.4809 129.072 92.4478 128.816C92.3898 128.371 92.1824 127.965 91.8653 127.676C91.5482 127.387 91.1437 127.235 90.7296 127.249L69.4862 128.059C69.2752 128.068 69.0682 128.123 68.878 128.222C68.6878 128.322 68.5184 128.462 68.3803 128.636C68.2423 128.809 68.1387 129.011 68.0758 129.23C68.0129 129.448 67.9921 129.678 68.0147 129.906Z" fill="#489CFF"/>
<path d="M58.0976 144.926C57.3401 145.096 58.6428 149.342 60.4563 152.043C62.2698 154.744 63.3882 155.49 63.7646 155.697C64.1411 155.903 74.9268 154.985 75.4282 154.858C75.9296 154.731 73.7397 151.823 72.7244 149.79C71.709 147.756 70.7281 144.889 70.5375 144.469C70.347 144.048 59.0817 144.706 58.0976 144.926Z" fill="#6148FF"/>
<path d="M79.8087 148.531C79.8486 148.947 80.0313 149.332 80.3207 149.609C80.61 149.886 80.9848 150.035 81.3707 150.027L102.614 149.518C102.852 149.513 103.085 149.453 103.3 149.342C103.514 149.231 103.704 149.073 103.858 148.876C104.012 148.68 104.126 148.451 104.192 148.203C104.258 147.956 104.275 147.696 104.242 147.441C104.184 146.996 103.976 146.59 103.659 146.3C103.342 146.011 102.938 145.859 102.524 145.874L81.2801 146.683C81.0692 146.692 80.8622 146.748 80.6719 146.847C80.4817 146.946 80.3123 147.087 80.1743 147.26C80.0363 147.433 79.9326 147.635 79.8697 147.854C79.8068 148.073 79.786 148.303 79.8087 148.531Z" fill="#489CFF"/>
<path d="M70.7002 161.482C69.9426 161.651 71.2453 165.898 73.0588 168.599C74.8723 171.3 75.9907 172.046 76.3672 172.252C76.7436 172.459 87.5293 171.541 88.0307 171.414C88.5322 171.287 86.3422 168.382 85.3269 166.347C84.3116 164.312 83.3306 161.446 83.1401 161.026C82.9495 160.606 71.6843 161.255 70.7002 161.482Z" fill="#6148FF"/>
<path d="M92.4107 165.079C92.4506 165.496 92.6333 165.881 92.9227 166.158C93.212 166.435 93.5868 166.584 93.9727 166.575L115.216 166.067C115.454 166.064 115.689 166.005 115.905 165.896C116.121 165.787 116.313 165.629 116.469 165.433C116.624 165.237 116.739 165.007 116.807 164.759C116.874 164.511 116.892 164.251 116.859 163.995C116.801 163.55 116.594 163.143 116.277 162.854C115.96 162.565 115.555 162.413 115.141 162.427L93.8977 163.237C93.6859 163.244 93.4776 163.298 93.2859 163.395C93.0941 163.493 92.9231 163.633 92.7835 163.806C92.6439 163.979 92.5387 164.181 92.4746 164.4C92.4104 164.619 92.3887 164.851 92.4107 165.079Z" fill="#489CFF"/>
<path d="M128.273 68.4981C128.273 68.4981 127.07 75.5457 116.603 75.6761C109.76 75.7592 106.517 71.7787 105.093 69.0048C104.337 67.5373 97.9559 51.1411 97.4748 46.4422C96.9937 41.7432 98.5572 34.6957 107.036 35.4108C114.885 36.0784 126.684 64.5719 128.123 68.1321C128.132 68.1611 128.143 68.189 128.157 68.2151C128.165 68.2287 128.171 68.2429 128.176 68.2575C128.225 68.388 128.257 68.471 128.262 68.493L128.273 68.4981Z" fill="#6148FF"/>
<path d="M116.391 76.0695C109.362 76.0695 106.099 71.7739 104.774 69.1948C104.035 67.7595 97.6062 51.2955 97.1204 46.4881C96.9642 45.0241 96.7299 40.0167 99.932 37.053C100.005 36.9897 100.098 36.9597 100.191 36.9693C100.285 36.9789 100.371 37.0275 100.431 37.1046C100.492 37.1818 100.523 37.2816 100.517 37.383C100.512 37.4843 100.47 37.5792 100.401 37.6478C97.4719 40.359 97.7015 45.0325 97.8421 46.4C98.3107 50.9888 104.695 67.4121 105.416 68.8152C106.939 71.7789 110.077 75.2883 116.397 75.2883H116.608C122.367 75.2171 125.224 73.0109 126.605 71.174C126.635 71.1337 126.672 71.1001 126.713 71.0753C126.755 71.0505 126.801 71.035 126.849 71.0295C126.896 71.0241 126.944 71.0289 126.99 71.0436C127.035 71.0583 127.078 71.0828 127.115 71.1154C127.152 71.1481 127.182 71.1884 127.205 71.234C127.227 71.2795 127.241 71.3295 127.246 71.3809C127.25 71.4324 127.246 71.4843 127.232 71.5337C127.218 71.5831 127.195 71.629 127.164 71.6688C125.685 73.6361 122.653 75.9966 116.616 76.0746H116.391V76.0695Z" fill="black"/>
<path d="M105.568 65.6257C105.497 65.6255 105.428 65.6028 105.369 65.5604C105.31 65.518 105.264 65.4578 105.237 65.3872C105.209 65.3167 105.201 65.2389 105.214 65.1635C105.227 65.0881 105.26 65.0184 105.309 64.9631C105.384 64.8801 112.875 56.6752 124.285 61.4775C124.375 61.515 124.447 61.5895 124.485 61.6845C124.524 61.7795 124.526 61.8873 124.492 61.9841C124.457 62.081 124.388 62.159 124.301 62.2009C124.213 62.2429 124.114 62.2454 124.025 62.2078C113.073 57.5987 105.905 65.4274 105.827 65.5088C105.793 65.5461 105.753 65.5756 105.708 65.5957C105.664 65.6158 105.616 65.626 105.568 65.6257Z" fill="black"/>
<path d="M128.273 68.4984C128.273 68.4984 127.297 74.231 119.429 75.4459C118.493 75.5845 117.55 75.6592 116.605 75.6696C109.762 75.7527 106.519 71.7722 105.095 68.9983C106.655 66.9056 108.687 65.2853 110.994 64.2943C112.963 63.4472 115.055 62.9848 117.172 62.9285C117.857 62.9019 118.543 62.9127 119.226 62.9607C125.506 63.3894 127.61 66.9699 128.13 68.1341C128.138 68.163 128.15 68.1909 128.164 68.2171C128.171 68.2307 128.178 68.2448 128.183 68.2594C128.216 68.3359 128.245 68.4145 128.269 68.495L128.273 68.4984Z" fill="#6148FF"/>
<path d="M116.39 76.0691C109.361 76.0691 106.097 71.7735 104.772 69.1944C104.737 69.1267 104.722 69.0493 104.728 68.9721C104.734 68.8949 104.76 68.8213 104.805 68.7606C106.402 66.6127 108.485 64.951 110.851 63.938C112.858 63.0733 114.99 62.599 117.148 62.5366C117.845 62.5094 118.543 62.5201 119.239 62.5688C122.192 62.7705 124.599 63.6702 126.389 65.2462C126.463 65.3115 126.511 65.4063 126.52 65.5096C126.53 65.6129 126.502 65.7162 126.442 65.7969C126.382 65.8775 126.294 65.9289 126.199 65.9397C126.104 65.9505 126.009 65.9199 125.934 65.8545C124.269 64.3853 122.001 63.5381 119.202 63.35C118.577 63.3042 117.896 63.2941 117.181 63.3195C115.107 63.3784 113.059 63.8333 111.131 64.6632C108.958 65.5945 107.033 67.0996 105.531 69.0419C107.114 71.987 110.295 75.3472 116.603 75.2845C117.532 75.2738 118.46 75.2003 119.382 75.0642C123.398 74.4407 125.523 72.6021 126.601 71.1668C126.662 71.0874 126.749 71.0372 126.844 71.0273C126.939 71.0173 127.033 71.0483 127.107 71.1135C127.181 71.1788 127.228 71.273 127.238 71.3756C127.248 71.4783 127.22 71.5811 127.16 71.6616C126.003 73.202 123.724 75.1761 119.483 75.8353C118.531 75.9761 117.573 76.0525 116.612 76.064H116.39V76.0691Z" fill="black"/>
<path d="M119.938 73.7916C119.878 74.378 119.704 74.9438 119.428 75.4522C117.964 78.2143 113.389 80.5002 105.323 79.0955C98.7622 77.9517 88.2873 73.2493 82.2439 70.3466C79.3901 68.9791 77.5234 68.0133 77.5234 68.0133L78.7028 63.477C78.7028 63.477 78.9777 63.477 79.4728 63.477C83.7075 63.5245 104.231 63.7634 110.993 64.2972C112.962 63.4487 115.054 62.9852 117.172 62.928C117.857 62.9015 118.542 62.9122 119.226 62.9602L119.501 66.6509L119.904 72.1801L119.918 72.3496C119.974 72.8279 119.981 73.3116 119.938 73.7916Z" fill="#EBF3FC"/>
<path d="M109.946 79.9142C108.376 79.9052 106.809 79.7607 105.26 79.4821C98.5812 78.3179 87.8783 73.4834 82.0926 70.7044C79.2669 69.3488 77.3815 68.3761 77.3628 68.366C77.286 68.3263 77.2246 68.2584 77.1895 68.1744C77.1543 68.0904 77.1477 67.9956 77.1707 67.9067L78.3562 63.3688C78.3776 63.2869 78.4231 63.2148 78.4857 63.1634C78.5482 63.1121 78.6245 63.0842 78.703 63.0841C78.703 63.0841 78.9779 63.0841 79.484 63.0841C86.8427 63.1655 104.586 63.4078 110.943 63.8975C112.927 63.0548 115.031 62.5921 117.161 62.53C117.859 62.5028 118.557 62.5136 119.253 62.5622C119.339 62.5684 119.421 62.6081 119.482 62.6741C119.544 62.74 119.582 62.8278 119.589 62.9214L120.285 72.2973C120.344 72.8033 120.351 73.3148 120.304 73.8223C120.238 74.4632 120.048 75.0816 119.747 75.6372C118.556 77.8841 115.41 79.9142 109.946 79.9142ZM77.9548 67.8C78.5796 68.1169 80.1979 68.937 82.3909 69.9876C88.1454 72.7514 98.7827 77.5588 105.382 78.7077C113.419 80.1073 117.746 77.8418 119.115 75.2559C119.368 74.7958 119.527 74.283 119.584 73.7512C119.625 73.3 119.618 72.8452 119.565 72.3955L119.55 72.2261L118.891 63.3298C118.353 63.301 117.782 63.2976 117.182 63.3197C115.108 63.3786 113.06 63.8335 111.132 64.6634C111.083 64.6856 111.029 64.6949 110.976 64.6905C104.537 64.1822 85.24 63.9365 79.4793 63.8721H78.9857L77.9548 67.8Z" fill="black"/>
<path d="M82.2439 70.3452C79.3901 68.9777 77.5234 68.0118 77.5234 68.0118L78.7028 63.4756C78.7028 63.4756 78.9777 63.4756 79.4728 63.4756L82.2439 70.3452Z" fill="black"/>
<path d="M119.496 66.6496C115.4 64.8179 110.992 64.301 110.992 64.301C112.961 63.4514 115.053 62.9867 117.172 62.9285C117.856 62.9019 118.542 62.9127 119.226 62.9607L119.496 66.6496Z" fill="black"/>
<path d="M72.7185 58.3395C72.7185 58.3395 67.6872 59.1698 67.114 57.8057C66.5407 56.4416 68.7509 54.4167 73.7244 54.4489C78.6979 54.4811 77.8278 57.599 77.8278 57.599C77.8278 57.599 80.0365 59.3528 79.532 64.1704C79.0274 68.9879 77.7388 71.0434 71.8125 70.5892C65.8862 70.1351 66.9874 61.8048 67.4998 60.3831C68.0121 58.9614 72.7185 58.3395 72.7185 58.3395Z" fill="#EBF3FC"/>
<path d="M73.3061 71.0399C72.8375 71.0399 72.3298 71.0196 71.7878 70.9772C70.0009 70.84 68.6544 70.0164 67.7859 68.5269C66.0912 65.6208 66.8097 61.2235 67.1611 60.239C67.3548 59.6984 67.9749 59.2714 68.7372 58.9393C67.8078 58.8342 67.0315 58.558 66.7831 57.9666C66.6827 57.7143 66.6443 57.438 66.6717 57.1648C66.699 56.8916 66.7913 56.6307 66.9393 56.4077C67.6313 55.2503 69.7759 54.0353 73.7185 54.0557C75.7491 54.0709 77.1159 54.5861 77.7938 55.5807C78.1529 56.1187 78.3038 56.7877 78.214 57.4447C78.7638 58.0039 80.3242 59.9865 79.8806 64.2076C79.4151 68.7455 78.2514 71.0399 73.3061 71.0399ZM72.1861 58.8139C70.3758 59.1172 68.1077 59.7764 67.8375 60.5237C67.5376 61.3574 66.9003 65.531 68.3967 68.1084C69.1355 69.3742 70.293 70.0774 71.8331 70.196C77.5532 70.6349 78.6825 68.7659 79.1746 64.1245C79.6432 59.6205 77.6985 57.9802 77.6126 57.9124C77.5529 57.8641 77.5083 57.7971 77.4849 57.7204C77.4614 57.6438 77.4602 57.5611 77.4814 57.4837C77.5358 57.2366 77.54 56.9796 77.4936 56.7305C77.4472 56.4815 77.3514 56.2464 77.2127 56.0417C76.68 55.269 75.4726 54.8555 73.72 54.8385C70.0649 54.7996 68.1124 55.8959 67.5516 56.8347C67.3767 57.1278 67.3392 57.399 67.4407 57.643C67.7 58.2632 69.9509 58.3208 72.0877 58.0378C72.3439 57.9954 72.547 57.9666 72.6719 57.9514C72.7668 57.9372 72.863 57.9645 72.9393 58.0273C73.0156 58.0901 73.0658 58.1831 73.0788 58.2861C73.0919 58.389 73.0667 58.4933 73.0088 58.5761C72.951 58.6589 72.8652 58.7133 72.7703 58.7275C72.6172 58.7512 72.4173 58.7834 72.1861 58.8139Z" fill="black"/>
<path d="M11.1264 49.721C11.1264 49.721 14.1051 54.1979 15.4032 53.6862C16.7012 53.1745 16.4966 50.0396 12.982 46.2167C9.46751 42.3939 8.03514 45.2373 8.03514 45.2373C8.03514 45.2373 5.33129 44.7628 2.51967 48.5264C-0.291962 52.2899 -0.748069 54.7283 3.70211 58.9985C8.15229 63.2687 12.8602 56.5838 13.4366 55.1909C14.013 53.798 11.1264 49.721 11.1264 49.721Z" fill="#EBF3FC"/>
<path d="M6.8358 60.8C5.63774 60.8 4.50684 60.2917 3.46341 59.2936C-1.22263 54.798 -0.663431 52.1613 2.23879 48.2792C4.70521 44.9833 7.10291 44.7969 7.86205 44.8342C8.23162 44.3056 8.77706 43.9547 9.38189 43.8565C10.5159 43.687 11.8155 44.3818 13.2432 45.939C16.0251 48.9705 16.7202 51.4903 16.4438 52.8358C16.4017 53.1068 16.2955 53.3614 16.1356 53.5746C15.9757 53.7879 15.7676 53.9525 15.5315 54.0524C14.9677 54.2727 14.2413 53.866 13.5228 53.2204C13.8352 54.044 13.9914 54.8234 13.7711 55.3504C13.3713 56.3146 10.9814 59.9494 7.88235 60.6729C7.53866 60.7556 7.18783 60.7982 6.8358 60.8ZM7.69647 45.6137C6.97014 45.6137 4.94733 45.9018 2.79956 48.774C0.0863353 52.402 -0.354151 54.5828 3.94139 58.7073C5.10197 59.8206 6.37657 60.2324 7.72459 59.9104C10.4737 59.2699 12.7683 55.8435 13.1073 55.0319C13.4119 54.2998 12.256 52.0817 11.1876 50.4668C11.0454 50.2652 10.9252 50.0872 10.833 49.9483C10.7758 49.8649 10.7515 49.7603 10.7654 49.6575C10.7794 49.5547 10.8303 49.4621 10.9072 49.4001C10.984 49.3381 11.0805 49.3117 11.1752 49.3268C11.27 49.3419 11.3553 49.3972 11.4125 49.4806C11.489 49.589 11.6124 49.7653 11.7624 49.989C13.0729 51.8529 14.6912 53.5475 15.2785 53.3153C15.5097 53.2238 15.6627 53.0052 15.733 52.6646C15.958 51.5733 15.305 49.301 12.7262 46.4898C11.489 45.1341 10.3691 44.4987 9.4881 44.6258C9.25572 44.6619 9.03342 44.7526 8.83673 44.8917C8.64005 45.0307 8.47373 45.2147 8.3494 45.4307C8.31312 45.5013 8.25766 45.558 8.19057 45.5932C8.12349 45.6284 8.04805 45.6403 7.97451 45.6272C7.88224 45.6156 7.78933 45.6111 7.69647 45.6137Z" fill="black"/>
<path d="M128.695 35.0008L113.305 24.6964C113.004 24.4953 112.747 24.2265 112.551 23.9083C112.355 23.5901 112.224 23.2299 112.167 22.852C112.11 22.4742 112.129 22.0875 112.222 21.7181C112.314 21.3487 112.479 21.0052 112.705 20.7109L123.131 7.12587C123.511 6.63126 124.043 6.30189 124.628 6.19823C125.214 6.09457 125.814 6.22359 126.319 6.56159L137.802 14.248C138.306 14.5862 138.682 15.1105 138.859 15.7246C139.036 16.3387 139.003 17.0014 138.766 17.5913L132.247 33.7943C132.106 34.1452 131.897 34.459 131.634 34.7147C131.372 34.9703 131.062 35.1618 130.725 35.2762C130.388 35.3906 130.033 35.4252 129.682 35.3777C129.332 35.3302 128.996 35.2017 128.695 35.0008Z" fill="#EBF3FC"/>
<path d="M129.99 35.7901C129.466 35.7898 128.953 35.6314 128.508 35.3325L113.111 25.0298C112.766 24.7993 112.47 24.4909 112.245 24.1256C112.019 23.7603 111.869 23.3466 111.803 22.9126C111.738 22.4786 111.76 22.0345 111.867 21.6104C111.974 21.1863 112.164 20.7921 112.423 20.4546L122.85 6.86957C123.287 6.30523 123.896 5.92955 124.566 5.81077C125.236 5.692 125.924 5.838 126.503 6.22226L137.986 13.9086C138.563 14.2983 138.992 14.8996 139.195 15.6033C139.398 16.307 139.361 17.0664 139.092 17.7434L132.573 33.9447C132.355 34.4915 131.994 34.9572 131.535 35.285C131.076 35.6127 130.539 35.7882 129.99 35.7901ZM125.03 6.55778C124.721 6.55699 124.416 6.62989 124.136 6.77132C123.856 6.91275 123.608 7.11926 123.409 7.37624L112.983 20.9613C112.79 21.2124 112.649 21.5055 112.57 21.8207C112.491 22.136 112.475 22.4661 112.523 22.7885C112.572 23.111 112.684 23.4184 112.852 23.6899C113.019 23.9614 113.239 24.1907 113.495 24.3622L128.887 34.6666C129.143 34.838 129.431 34.9478 129.73 34.9884C130.028 35.029 130.332 34.9996 130.619 34.9021C130.907 34.8045 131.171 34.6412 131.396 34.4232C131.62 34.2051 131.798 33.9373 131.919 33.638L138.437 17.4349C138.637 16.9311 138.665 16.3661 138.513 15.8426C138.362 15.319 138.043 14.8715 137.614 14.5814L126.132 6.89499C125.801 6.67356 125.419 6.55677 125.03 6.55778Z" fill="black"/>
<path d="M127.456 9.68105L130.944 3.55195C131.539 2.50661 132.492 1.76036 133.594 1.47737C134.695 1.19438 135.856 1.39784 136.819 2.04297C137.783 2.68811 138.471 3.72208 138.732 4.91743C138.993 6.11278 138.805 7.37159 138.21 8.41693L134.722 14.5477C134.683 14.6167 134.657 14.6934 134.645 14.7735C134.633 14.8535 134.636 14.9353 134.653 15.0142C134.67 15.0931 134.701 15.1676 134.745 15.2334C134.789 15.2991 134.844 15.3549 134.908 15.3975C134.971 15.4402 135.042 15.4688 135.116 15.4817C135.189 15.4947 135.265 15.4918 135.338 15.4731C135.41 15.4545 135.479 15.4205 135.54 15.3731C135.6 15.3256 135.652 15.2657 135.691 15.1967L139.179 9.06594C139.572 8.41049 139.84 7.6764 139.968 6.90681C140.096 6.13722 140.081 5.34768 139.923 4.58459C139.766 3.82151 139.469 3.10028 139.051 2.46332C138.633 1.82636 138.102 1.28652 137.488 0.875543C136.875 0.464562 136.192 0.190734 135.48 0.0701583C134.768 -0.0504174 134.041 -0.0153081 133.341 0.173424C132.642 0.362155 131.984 0.7007 131.407 1.16915C130.83 1.63761 130.344 2.22651 129.98 2.90125L126.492 9.03205C126.413 9.17137 126.388 9.33917 126.422 9.49854C126.457 9.65791 126.549 9.79579 126.677 9.88185C126.806 9.96792 126.96 9.99511 127.107 9.95745C127.254 9.9198 127.381 9.82037 127.461 9.68105H127.456Z" fill="#489CFF"/>
<path d="M181.45 88.5799C179.912 88.5799 178.437 89.2427 177.349 90.4227C176.261 91.6026 175.65 93.203 175.65 94.8716C175.65 93.203 175.039 91.6026 173.952 90.4227C172.864 89.2427 171.389 88.5799 169.851 88.5799C170.612 88.5799 171.366 88.4171 172.07 88.1009C172.774 87.7847 173.413 87.3213 173.952 86.737C174.49 86.1528 174.917 85.4592 175.209 84.6958C175.5 83.9325 175.65 83.1143 175.65 82.2881C175.65 83.1143 175.8 83.9325 176.092 84.6958C176.383 85.4592 176.811 86.1528 177.349 86.737C177.888 87.3213 178.527 87.7847 179.231 88.1009C179.934 88.4171 180.688 88.5799 181.45 88.5799Z" fill="#489CFF"/>
<path d="M165.741 106.501C165.119 106.501 164.523 106.769 164.084 107.245C163.645 107.722 163.398 108.369 163.398 109.043C163.398 108.369 163.151 107.722 162.711 107.245C162.272 106.769 161.676 106.501 161.055 106.501C161.676 106.501 162.272 106.233 162.711 105.757C163.151 105.28 163.398 104.633 163.398 103.959C163.398 104.633 163.645 105.28 164.084 105.757C164.523 106.233 165.119 106.501 165.741 106.501Z" fill="#489CFF"/>
<path d="M49.7895 12.4294C48.6353 12.4294 47.5284 12.9268 46.7123 13.8122C45.8962 14.6975 45.4377 15.8983 45.4377 17.1504C45.4377 15.8983 44.9792 14.6975 44.1631 13.8122C43.347 12.9268 42.2401 12.4294 41.0859 12.4294C42.2401 12.4294 43.347 11.9321 44.1631 11.0467C44.9792 10.1614 45.4377 8.96057 45.4377 7.7085C45.4377 8.96057 45.8962 10.1614 46.7123 11.0467C47.5284 11.9321 48.6353 12.4294 49.7895 12.4294Z" fill="#489CFF"/>
<path d="M27.0045 140.914C25.596 140.914 24.2452 141.521 23.2492 142.601C22.2532 143.682 21.6937 145.147 21.6937 146.675C21.6937 145.147 21.1341 143.682 20.1382 142.601C19.1422 141.521 17.7913 140.914 16.3828 140.914C17.7913 140.914 19.1422 140.307 20.1382 139.227C21.1341 138.146 21.6937 136.681 21.6937 135.153C21.6937 136.681 22.2532 138.146 23.2492 139.227C24.2452 140.307 25.596 140.914 27.0045 140.914Z" fill="#489CFF"/>
<path d="M136.469 58.4258C137.866 58.4258 138.998 57.1976 138.998 55.6824C138.998 54.1672 137.866 52.939 136.469 52.939C135.073 52.939 133.94 54.1672 133.94 55.6824C133.94 57.1976 135.073 58.4258 136.469 58.4258Z" fill="#6148FF"/>
<path d="M154.139 94.3378C154.936 94.3378 155.582 93.6368 155.582 92.772C155.582 91.9073 154.936 91.2063 154.139 91.2063C153.341 91.2063 152.695 91.9073 152.695 92.772C152.695 93.6368 153.341 94.3378 154.139 94.3378Z" fill="#6148FF"/>
<path d="M2.79679 166.008C3.99246 166.008 4.96174 164.957 4.96174 163.659C4.96174 162.362 3.99246 161.311 2.79679 161.311C1.60112 161.311 0.631836 162.362 0.631836 163.659C0.631836 164.957 1.60112 166.008 2.79679 166.008Z" fill="#6148FF"/>
<path d="M3.87863 32.2147C5.40643 32.2147 6.64496 30.8711 6.64496 29.2137C6.64496 27.5562 5.40643 26.2126 3.87863 26.2126C2.35083 26.2126 1.1123 27.5562 1.1123 29.2137C1.1123 30.8711 2.35083 32.2147 3.87863 32.2147Z" fill="#6148FF"/>
<path d="M36.2412 38.4794C37.0383 38.4794 37.6845 37.7784 37.6845 36.9136C37.6845 36.0489 37.0383 35.3479 36.2412 35.3479C35.444 35.3479 34.7979 36.0489 34.7979 36.9136C34.7979 37.7784 35.444 38.4794 36.2412 38.4794Z" fill="#6148FF"/>
</svg>
