<svg width="186" height="181" viewBox="0 0 186 181" fill="none" xmlns="http://www.w3.org/2000/svg">
<g opacity="0.7">
<path d="M158.183 1.57642H125.468V41.8537H158.183V1.57642Z" fill="#F4F4F4"/>
<path d="M158.183 41.8538H159.244V1.57646H158.183V41.8538Z" fill="#F4F4F4"/>
<path opacity="0.05" d="M158.183 41.8538H159.244V1.57646H158.183V41.8538Z" fill="#292A2E"/>
<path opacity="0.05" d="M152.224 9.63306H131.428V33.7975H152.224V9.63306Z" fill="#292A2E"/>
<path opacity="0.03" d="M152.223 9.63306H151.14V33.7975H152.223V9.63306Z" fill="#292A2E"/>
<path d="M184.938 52.73H158.183V80.7739H184.938V52.73Z" fill="#F4F4F4"/>
<path opacity="0.05" d="M180.064 57.8384H163.057V75.6651H180.064V57.8384Z" fill="#292A2E"/>
<path d="M184.939 80.7737H186V52.7298H184.939V80.7737Z" fill="#F4F4F4"/>
<path opacity="0.05" d="M184.939 80.7737H186V52.7298H184.939V80.7737Z" fill="#292A2E"/>
<path opacity="0.03" d="M180.064 57.8384H178.98V75.6651H180.064V57.8384Z" fill="#292A2E"/>
</g>
<g opacity="0.7">
<path d="M91.1988 0H14.1787V79.9947H91.1988V0Z" fill="#F4F4F4"/>
<path d="M14.1787 0H13.2959V79.9947H14.1787V0Z" fill="#F4F4F4"/>
<path opacity="0.05" d="M14.1787 0H13.2959V79.9947H14.1787V0Z" fill="#292A2E"/>
<path opacity="0.05" d="M32.8373 55.123V34.1938H49.3439V46.3532H74.9127V67.8831H85.7798V79.9948H74.9127H72.8193H17.8838V55.123H32.8373Z" fill="#292A2E"/>
<path opacity="0.34" d="M47.2254 36.4663H35.2051V38.7387H47.2254V36.4663Z" fill="#FFFFFA"/>
<path opacity="0.34" d="M47.2254 41.1753H35.2051V43.4477H47.2254V41.1753Z" fill="#FFFFFA"/>
<path opacity="0.34" d="M47.2254 45.8843H35.2051V48.1567H47.2254V45.8843Z" fill="#FFFFFA"/>
<path opacity="0.34" d="M22.2311 57.3286H20.0156V59.601H22.2311V57.3286Z" fill="#FFFFFA"/>
<path opacity="0.34" d="M22.2311 62.0376H20.0156V64.31H22.2311V62.0376Z" fill="#FFFFFA"/>
<path opacity="0.34" d="M22.2311 66.7466H20.0156V69.019H22.2311V66.7466Z" fill="#FFFFFA"/>
<path opacity="0.34" d="M26.3297 57.3286H24.1143V59.601H26.3297V57.3286Z" fill="#FFFFFA"/>
<path opacity="0.34" d="M26.3297 62.0376H24.1143V64.31H26.3297V62.0376Z" fill="#FFFFFA"/>
<path opacity="0.34" d="M26.3297 66.7466H24.1143V69.019H26.3297V66.7466Z" fill="#FFFFFA"/>
<path opacity="0.34" d="M30.318 57.3286H28.1025V59.601H30.318V57.3286Z" fill="#FFFFFA"/>
<path opacity="0.34" d="M30.318 62.0376H28.1025V64.31H30.318V62.0376Z" fill="#FFFFFA"/>
<path opacity="0.34" d="M30.318 66.7466H28.1025V69.019H30.318V66.7466Z" fill="#FFFFFA"/>
<path d="M14.1787 39.5486H29.6764V0H30.9581V39.5486H72.8192V0H74.1009V39.5486H91.1988V40.8798H74.1009V79.9947H72.8192V40.8798H30.9581V79.9947H29.6764V40.8798H14.1787V39.5486Z" fill="white"/>
<path d="M94.2668 79.8982H11.1104V82.5584H94.2668V79.8982Z" fill="#F4F4F4"/>
<path opacity="0.1" d="M94.2668 79.8982H11.1104V82.5584H94.2668V79.8982Z" fill="#292A2E"/>
<path opacity="0.1" d="M11.1107 79.8982H9.91016V82.5584H11.1107V79.8982Z" fill="#292A2E"/>
<path opacity="0.1" d="M11.1107 79.8982H9.91016V82.5584H11.1107V79.8982Z" fill="#292A2E"/>
</g>
<path d="M58.6315 9.93335H148.782C150.08 9.93335 151.326 10.4691 152.244 11.4228C153.162 12.3766 153.678 13.6701 153.678 15.0188V127.163C153.678 128.541 153.151 129.863 152.213 130.837C151.274 131.811 150.002 132.359 148.675 132.359H58.7382C57.4113 132.359 56.1389 131.811 55.2006 130.837C54.2624 129.863 53.7354 128.541 53.7354 127.163V15.0182C53.7355 13.6696 54.2514 12.3763 55.1696 11.4227C56.0878 10.4691 57.3331 9.9334 58.6315 9.93335Z" fill="white"/>
<path d="M148.675 132.556H58.7379C57.3606 132.556 56.0398 131.988 55.0659 130.976C54.092 129.965 53.5449 128.593 53.5449 127.163V14.8207C53.545 13.4721 54.0609 12.1787 54.9791 11.2251C55.8973 10.2716 57.1426 9.73584 58.4411 9.73584H148.971C150.27 9.73584 151.515 10.2716 152.434 11.2253C153.352 12.1789 153.868 13.4724 153.868 14.8211V127.163C153.868 128.593 153.321 129.965 152.347 130.976C151.373 131.988 150.052 132.556 148.675 132.556ZM53.9252 15.0097V127.163C53.9252 127.819 54.0496 128.469 54.2915 129.076C54.5333 129.682 54.8878 130.233 55.3347 130.697C55.7816 131.161 56.3122 131.53 56.8961 131.781C57.48 132.032 58.1059 132.161 58.7379 132.161H148.675C149.951 132.161 151.175 131.635 152.078 130.697C152.98 129.76 153.487 128.488 153.487 127.163V14.9603C153.487 14.326 153.367 13.698 153.133 13.112C152.899 12.526 152.557 11.9936 152.125 11.5451C151.693 11.0966 151.18 10.7409 150.616 10.4982C150.052 10.2556 149.447 10.1307 148.836 10.1308H58.623C57.3772 10.1308 56.1823 10.6448 55.3013 11.5598C54.4203 12.4747 53.9253 13.7157 53.9252 15.0097Z" fill="#292A2E"/>
<path d="M73.122 34.2778H62.197C61.5882 34.2771 61.0045 34.0256 60.574 33.5785C60.1434 33.1314 59.9012 32.5252 59.9004 31.8928V20.5457C59.9011 19.9133 60.1433 19.307 60.5738 18.8599C61.0044 18.4127 61.5881 18.1611 62.197 18.1604H73.122C73.7309 18.1611 74.3147 18.4126 74.7453 18.8598C75.1759 19.307 75.4181 19.9133 75.4188 20.5457V31.8928C75.418 32.5252 75.1758 33.1314 74.7452 33.5785C74.3146 34.0256 73.7309 34.2771 73.122 34.2778ZM62.197 18.555C61.689 18.5556 61.2019 18.7655 60.8426 19.1386C60.4834 19.5118 60.2813 20.0177 60.2807 20.5453V31.8928C60.2813 32.4205 60.4834 32.9264 60.8426 33.2996C61.2019 33.6727 61.689 33.8826 62.197 33.8832H73.122C73.6301 33.8827 74.1172 33.6728 74.4765 33.2996C74.8358 32.9265 75.038 32.4206 75.0386 31.8928V20.5457C75.038 20.018 74.8358 19.5121 74.4765 19.139C74.1172 18.7658 73.6301 18.5559 73.122 18.5554L62.197 18.555Z" fill="#292A2E"/>
<path d="M73.122 56.7584H62.197C61.5881 56.7577 61.0044 56.5061 60.5738 56.059C60.1433 55.6118 59.9011 55.0055 59.9004 54.3731V43.0262C59.901 42.3937 60.1432 41.7874 60.5738 41.3402C61.0043 40.8929 61.5881 40.6414 62.197 40.6406H73.122C73.7309 40.6414 74.3147 40.8929 74.7453 41.3401C75.1759 41.7874 75.4181 42.3937 75.4188 43.0262V54.3731C75.4181 55.0055 75.1759 55.6118 74.7453 56.059C74.3147 56.5062 73.7309 56.7577 73.122 56.7584ZM62.197 41.0362C61.6889 41.0368 61.2018 41.2467 60.8426 41.6199C60.4833 41.9931 60.2812 42.499 60.2807 43.0268V54.3737C60.2812 54.9014 60.4833 55.4073 60.8426 55.7804C61.2018 56.1536 61.6889 56.3635 62.197 56.3641H73.122C73.6301 56.3635 74.1172 56.1536 74.4765 55.7805C74.8358 55.4073 75.038 54.9014 75.0386 54.3737V43.0262C75.038 42.4984 74.8358 41.9925 74.4765 41.6193C74.1173 41.2461 73.6301 41.0362 73.122 41.0356L62.197 41.0362Z" fill="#292A2E"/>
<path d="M73.122 79.2389H62.197C61.5881 79.2382 61.0044 78.9867 60.5738 78.5395C60.1433 78.0923 59.9011 77.486 59.9004 76.8536V65.5067C59.9011 64.8743 60.1433 64.268 60.5738 63.8208C61.0044 63.3736 61.5881 63.1221 62.197 63.1213H73.122C73.7309 63.122 74.3147 63.3735 74.7453 63.8207C75.1759 64.2679 75.4181 64.8742 75.4188 65.5067V76.8536C75.4181 77.486 75.1759 78.0924 74.7453 78.5395C74.3147 78.9867 73.7309 79.2383 73.122 79.2389ZM62.197 63.5163C61.6889 63.5169 61.2018 63.7268 60.8426 64.0999C60.4833 64.473 60.2812 64.979 60.2807 65.5067V76.8536C60.2812 77.3813 60.4833 77.8872 60.8426 78.2604C61.2018 78.6335 61.6889 78.8434 62.197 78.844H73.122C73.6301 78.8434 74.1172 78.6335 74.4765 78.2604C74.8358 77.8872 75.038 77.3813 75.0386 76.8536V65.5067C75.038 64.979 74.8358 64.473 74.4765 64.0999C74.1172 63.7267 73.6301 63.5169 73.122 63.5163H62.197Z" fill="#292A2E"/>
<path d="M73.122 101.411H62.197C61.5881 101.41 61.0044 101.158 60.5738 100.711C60.1433 100.264 59.9011 99.6578 59.9004 99.0254V87.6785C59.901 87.0461 60.1432 86.4397 60.5738 85.9925C61.0043 85.5453 61.5881 85.2937 62.197 85.293H73.122C73.7309 85.2937 74.3147 85.5453 74.7453 85.9925C75.1759 86.4397 75.4181 87.0461 75.4188 87.6785V99.0254C75.4181 99.6579 75.1759 100.264 74.7453 100.711C74.3147 101.159 73.7309 101.41 73.122 101.411ZM62.197 85.6879C61.6889 85.6885 61.2018 85.8984 60.8425 86.2716C60.4832 86.6448 60.2812 87.1508 60.2807 87.6785V99.0254C60.2813 99.5531 60.4834 100.059 60.8426 100.432C61.2019 100.805 61.689 101.015 62.197 101.016H73.122C73.6301 101.015 74.1172 100.805 74.4765 100.432C74.8358 100.059 75.038 99.5531 75.0386 99.0254V87.6785C75.038 87.1508 74.8359 86.6448 74.4766 86.2716C74.1173 85.8984 73.6301 85.6885 73.122 85.6879H62.197Z" fill="#292A2E"/>
<path d="M73.122 123.582H62.197C61.5881 123.581 61.0043 123.33 60.5738 122.883C60.1432 122.435 59.901 121.829 59.9004 121.197V109.85C59.901 109.217 60.1432 108.611 60.5738 108.164C61.0043 107.717 61.5881 107.465 62.197 107.464H73.122C73.7309 107.465 74.3147 107.717 74.7453 108.164C75.1759 108.611 75.4181 109.217 75.4188 109.85V121.197C75.4181 121.829 75.1758 122.436 74.7453 122.883C74.3147 123.33 73.7309 123.581 73.122 123.582ZM62.197 107.859C61.6889 107.86 61.2018 108.07 60.8426 108.443C60.4833 108.816 60.2812 109.322 60.2807 109.85V121.197C60.2812 121.724 60.4833 122.23 60.8426 122.603C61.2018 122.977 61.6889 123.187 62.197 123.187H73.122C73.6301 123.187 74.1173 122.977 74.4765 122.603C74.8358 122.23 75.038 121.724 75.0386 121.197V109.85C75.038 109.322 74.8358 108.816 74.4765 108.443C74.1173 108.07 73.6301 107.86 73.122 107.859L62.197 107.859Z" fill="#292A2E"/>
<path d="M65.7164 53.2392C65.5199 53.2393 65.3309 53.1603 65.1894 53.0186L62.005 49.8392C61.933 49.7673 61.8753 49.6814 61.8353 49.5864C61.7952 49.4913 61.7736 49.389 61.7716 49.2853C61.7697 49.1816 61.7874 49.0785 61.8238 48.9819C61.8601 48.8853 61.9145 48.7971 61.9837 48.7223C62.0529 48.6475 62.1356 48.5876 62.2271 48.546C62.3186 48.5044 62.4171 48.4819 62.517 48.4799C62.6169 48.4778 62.7161 48.4962 62.8091 48.534C62.9022 48.5718 62.9871 48.6283 63.0591 48.7002L65.7035 51.3406L72.3318 44.3933C72.4743 44.247 72.6666 44.165 72.8669 44.165C73.0673 44.1651 73.2595 44.2473 73.4019 44.3938C73.5442 44.5403 73.6252 44.7391 73.6271 44.9472C73.6291 45.1553 73.5519 45.3558 73.4123 45.5052L66.2566 53.0044C66.1861 53.0788 66.102 53.1379 66.0092 53.1782C65.9165 53.2185 65.817 53.2392 65.7164 53.2392Z" fill="#489CFF"/>
<path d="M65.7164 75.7197C65.5199 75.7199 65.331 75.6409 65.1894 75.4993L62.005 72.3199C61.8596 72.1747 61.7756 71.9755 61.7716 71.766C61.7676 71.5565 61.8439 71.354 61.9837 71.203C62.1235 71.0519 62.3153 70.9647 62.517 70.9606C62.7187 70.9564 62.9137 71.0357 63.0591 71.1808L65.7035 73.8205L72.3318 66.8738C72.4738 66.725 72.6669 66.6409 72.8686 66.6399C73.0703 66.6389 73.2641 66.7212 73.4074 66.8687C73.5507 67.0162 73.6317 67.2167 73.6326 67.4262C73.6336 67.6357 73.5543 67.837 73.4123 67.9858L66.2566 75.4851C66.1861 75.5594 66.102 75.6185 66.0092 75.6587C65.9165 75.699 65.817 75.7197 65.7164 75.7197Z" fill="#489CFF"/>
<path opacity="0.5" d="M145.463 22.7056H81.39C81.097 22.7056 80.8594 22.9523 80.8594 23.2567C80.8594 23.5611 81.097 23.8079 81.39 23.8079H145.463C145.756 23.8079 145.994 23.5611 145.994 23.2567C145.994 22.9523 145.756 22.7056 145.463 22.7056Z" fill="#262626"/>
<path opacity="0.5" d="M122.647 28.6299H81.39C81.097 28.6299 80.8594 28.8766 80.8594 29.181C80.8594 29.4854 81.097 29.7322 81.39 29.7322H122.647C122.94 29.7322 123.178 29.4854 123.178 29.181C123.178 28.8766 122.94 28.6299 122.647 28.6299Z" fill="#262626"/>
<path opacity="0.5" d="M145.463 45.186H81.39C81.097 45.186 80.8594 45.4328 80.8594 45.7372C80.8594 46.0416 81.097 46.2884 81.39 46.2884H145.463C145.756 46.2884 145.994 46.0416 145.994 45.7372C145.994 45.4328 145.756 45.186 145.463 45.186Z" fill="#262626"/>
<path opacity="0.5" d="M122.647 51.1104H81.39C81.097 51.1104 80.8594 51.3571 80.8594 51.6615C80.8594 51.9659 81.097 52.2127 81.39 52.2127H122.647C122.94 52.2127 123.178 51.9659 123.178 51.6615C123.178 51.3571 122.94 51.1104 122.647 51.1104Z" fill="#262626"/>
<path opacity="0.5" d="M145.463 67.6667H81.39C81.097 67.6667 80.8594 67.9135 80.8594 68.2179C80.8594 68.5223 81.097 68.7691 81.39 68.7691H145.463C145.756 68.7691 145.994 68.5223 145.994 68.2179C145.994 67.9135 145.756 67.6667 145.463 67.6667Z" fill="#262626"/>
<path opacity="0.5" d="M122.647 73.5911H81.39C81.097 73.5911 80.8594 73.8378 80.8594 74.1422C80.8594 74.4466 81.097 74.6934 81.39 74.6934H122.647C122.94 74.6934 123.178 74.4466 123.178 74.1422C123.178 73.8378 122.94 73.5911 122.647 73.5911Z" fill="#262626"/>
<path opacity="0.5" d="M145.463 89.8384H81.39C81.097 89.8384 80.8594 90.0851 80.8594 90.3895C80.8594 90.6939 81.097 90.9407 81.39 90.9407H145.463C145.756 90.9407 145.994 90.6939 145.994 90.3895C145.994 90.0851 145.756 89.8384 145.463 89.8384Z" fill="#262626"/>
<path opacity="0.5" d="M122.647 95.7627H81.39C81.097 95.7627 80.8594 96.0095 80.8594 96.3139C80.8594 96.6183 81.097 96.865 81.39 96.865H122.647C122.94 96.865 123.178 96.6183 123.178 96.3139C123.178 96.0095 122.94 95.7627 122.647 95.7627Z" fill="#262626"/>
<path opacity="0.5" d="M145.463 112.01H81.39C81.097 112.01 80.8594 112.257 80.8594 112.561C80.8594 112.865 81.097 113.112 81.39 113.112H145.463C145.756 113.112 145.994 112.865 145.994 112.561C145.994 112.257 145.756 112.01 145.463 112.01Z" fill="#262626"/>
<path opacity="0.5" d="M122.647 117.934H81.39C81.097 117.934 80.8594 118.181 80.8594 118.485C80.8594 118.79 81.097 119.036 81.39 119.036H122.647C122.94 119.036 123.178 118.79 123.178 118.485C123.178 118.181 122.94 117.934 122.647 117.934Z" fill="#262626"/>
<path d="M65.1678 30.2592C65.2232 30.1177 65.3216 29.9989 65.448 29.9209C65.5744 29.8428 65.7219 29.8098 65.8681 29.8269C65.8681 29.8147 65.8578 29.785 65.8783 29.7852L65.403 29.4732C65.2609 29.3844 65.1545 29.2452 65.1035 29.0813C65.0526 28.9173 65.0605 28.7398 65.1258 28.5814C65.1951 28.4271 65.3171 28.3051 65.4682 28.239C65.6193 28.1729 65.7886 28.1675 65.9433 28.2238C65.9418 28.2171 65.9458 28.2104 65.9464 28.204L65.7509 28.0759C65.6173 27.9916 65.5159 27.862 65.4637 27.709C65.4115 27.556 65.4118 27.389 65.4646 27.2362C65.4996 27.1411 65.5546 27.0554 65.6254 26.985C65.6962 26.9147 65.7812 26.8615 65.8742 26.8294C65.9672 26.7973 66.0659 26.787 66.1632 26.7993C66.2604 26.8116 66.3539 26.8462 66.4367 26.9005L66.8881 27.1967C66.8893 27.1939 66.8881 27.191 66.8893 27.1884C66.8904 27.1858 66.8955 27.1847 66.8978 27.1817C66.7919 27.0715 66.7251 26.9273 66.7084 26.7725C66.6917 26.6178 66.7261 26.4617 66.806 26.33C66.9912 25.9759 67.4669 26.017 67.7588 26.2083L68.6334 26.8855C68.7683 26.99 68.8762 27.1275 68.9475 27.2857C69.0188 27.444 69.0513 27.6182 69.0422 27.7927C68.9644 29.303 68.6703 33.2431 67.7388 32.6309L65.446 31.1273C65.3132 31.0354 65.2138 30.9001 65.1634 30.7429C65.113 30.5856 65.1145 30.4154 65.1678 30.2592Z" fill="#489CFF"/>
<path d="M65.7167 30.5337C65.5202 30.5338 65.3312 30.4548 65.1897 30.3131L62.0053 27.1337C61.9322 27.0621 61.8735 26.9762 61.8326 26.8808C61.7916 26.7855 61.7693 26.6827 61.7668 26.5784C61.7644 26.4741 61.7818 26.3703 61.8182 26.273C61.8546 26.1757 61.9092 26.0869 61.9789 26.0116C62.0485 25.9364 62.1318 25.8762 62.224 25.8346C62.3161 25.793 62.4153 25.7708 62.5158 25.7693C62.6162 25.7677 62.716 25.7868 62.8093 25.8255C62.9026 25.8643 62.9876 25.9218 63.0594 25.9948L65.7038 28.6347L72.3321 21.688C72.4024 21.6144 72.486 21.5558 72.5781 21.5156C72.6702 21.4755 72.769 21.4546 72.8689 21.4541C72.9687 21.4536 73.0677 21.4736 73.1602 21.5129C73.2526 21.5521 73.3367 21.6099 73.4077 21.6829C73.4786 21.7559 73.535 21.8427 73.5737 21.9384C73.6123 22.0341 73.6325 22.1367 73.6329 22.2404C73.6334 22.3441 73.6142 22.447 73.5764 22.543C73.5386 22.639 73.4829 22.7264 73.4126 22.8L66.2569 30.2993C66.1863 30.3736 66.1022 30.4326 66.0095 30.4728C65.9168 30.5131 65.8172 30.5338 65.7167 30.5337Z" fill="#489CFF"/>
<path d="M63.5251 28.6053C63.5411 28.4902 63.5794 28.3798 63.6378 28.2807C63.6962 28.1815 63.7735 28.0958 63.8648 28.0287C63.9562 27.9616 64.0598 27.9145 64.1692 27.8904C64.2787 27.8662 64.3917 27.8655 64.5015 27.8882C64.7123 27.94 64.8964 28.0729 65.0166 28.2601C65.1368 28.4473 65.1841 28.6749 65.1491 28.8969L65.1262 30.1097C65.1214 30.3662 65.2071 30.6157 65.3672 30.811C65.5273 31.0064 65.7508 31.1341 65.9953 31.1701C66.2351 31.2054 66.479 31.1502 66.6829 31.0146C66.8867 30.879 67.037 30.6719 67.1063 30.431L67.702 28.3608L67.0542 27.3562C67.2808 26.9771 67.471 25.9966 67.8636 26.2887C68.1958 26.5031 68.95 27.0217 69.1565 27.513C69.1605 27.515 69.5467 31.7306 69.3366 32.0821L67.4774 37.2473C66.5855 38.7387 62.2812 37.5846 62.2812 37.5846L63.5251 28.6053Z" fill="#489CFF"/>
<path d="M65.7031 28.6347L72.3314 21.688C72.4017 21.6144 72.4853 21.5558 72.5774 21.5156C72.6695 21.4755 72.7683 21.4546 72.8682 21.4541C72.9681 21.4536 73.0671 21.4736 73.1595 21.5129C73.252 21.5521 73.3361 21.6099 73.407 21.6829C73.478 21.7559 73.5344 21.8427 73.573 21.9384C73.6117 22.0341 73.6318 22.1367 73.6322 22.2404C73.6327 22.3441 73.6135 22.447 73.5757 22.543C73.5379 22.639 73.4823 22.7264 73.412 22.8L66.2562 30.2993" fill="#489CFF"/>
<path d="M31.875 64.5378L58.7006 62.1932C60.6757 62.2471 62.3955 60.5415 63.1199 58.6275L70.148 35.7481L60.9543 31.9944L54.7503 51.5927L31.1582 53.3076L31.875 64.5378Z" fill="#6148FF"/>
<path d="M16.298 172.26C16.298 172.26 17.1564 176.881 21.3229 177.14C25.4893 177.398 24.5858 180.844 24.5858 180.844H8.66406V172.582L16.298 172.26Z" fill="#6148FF"/>
<path d="M11.3876 87.9506C11.3876 87.9506 11.4376 86.5614 11.4269 89.7129C11.3876 101.469 11.1912 114.896 10.7113 122.754C9.93989 135.386 7.96191 175.21 7.96191 175.21L18.4243 175.119L28.5646 87.4731L11.3876 87.9506Z" fill="#262626"/>
<path d="M23.2021 101.813C23.2021 101.813 23.6357 110.345 23.7155 112.347C23.9015 116.979 23.9661 121.775 23.9661 127.212L25.6157 112.958C25.6157 112.958 24.4089 108.491 23.2021 101.813Z" fill="#0A0A0A"/>
<path d="M34.9249 172.26C34.9249 172.26 35.7834 176.881 39.9498 177.14C44.1162 177.398 43.2127 180.844 43.2127 180.844H27.291V172.582L34.9249 172.26Z" fill="#6148FF"/>
<path d="M39.9901 88.8635C39.9901 88.8635 40.9168 129.042 40.781 131.005L36.8903 174.905L26.6008 175.102L27.6035 129.417C27.6035 129.417 26.8962 116.815 23.9645 105.113C22.4646 99.1067 21.5618 92.9568 21.2705 86.7595L39.9901 88.8635Z" fill="#262626"/>
<path d="M11.2736 87.9493L11.2393 87.9513C11.2393 87.9513 11.2642 87.2657 11.2736 87.9493Z" fill="#333333"/>
<path d="M41.4626 67.747C41.247 70.3798 40.1973 85.6206 39.9898 88.8636H11.3989C11.2374 85.9387 10.5121 73.149 9.89964 67.4295C9.31497 61.9716 8.16789 59.2391 9.00867 57.6255C10.3826 54.9883 14.137 53.4646 16.697 53.1046C18.2603 52.8848 31.5876 52.7268 31.6195 52.7268C32.6664 52.7268 38.7621 53.2379 40.1096 54.3157C42.5477 56.266 41.8395 63.1558 41.4626 67.747Z" fill="#6148FF"/>
<path d="M41.8575 63.7425C41.8818 63.7426 41.9052 63.7329 41.9229 63.7157C41.9406 63.6984 41.9512 63.6747 41.9526 63.6495L42.1832 59.8636C42.1847 59.8375 42.1761 59.8119 42.1593 59.7923C42.1426 59.7727 42.119 59.7609 42.0939 59.7594C42.0688 59.7582 42.0442 59.7672 42.0255 59.7846C42.0067 59.8019 41.9952 59.8262 41.9935 59.8522L41.7629 63.6381C41.7614 63.6642 41.77 63.6899 41.7868 63.7094C41.8035 63.729 41.8271 63.7408 41.8522 63.7423L41.8575 63.7425Z" fill="#0C0C0C"/>
<path d="M5.21817 88.6914C4.37734 88.6911 3.54902 88.4799 2.8037 88.0756C2.05837 87.6714 1.4181 87.0861 0.937352 86.3696C0.456608 85.6531 0.149625 84.8266 0.0425214 83.9604C-0.0645818 83.0942 0.0313652 82.214 0.322199 81.3946C0.616718 80.5626 7.54143 61.5172 8.85926 57.9883L18.6206 62.0958C17.8791 64.0799 15.1938 71.6007 13.0361 77.6593L16.6206 77.2547L17.7488 88.034L5.78269 88.6594C5.59521 88.6807 5.40676 88.6914 5.21817 88.6914Z" fill="#6148FF"/>
<path d="M35.026 52.3667C34.9941 52.3623 34.117 55.7902 27.2727 55.2566C22.5345 54.8879 21.3785 51.5382 21.2705 51.5382C21.7814 51.4255 22.6112 51.3084 22.838 51.1828C23.5841 50.7663 24.1277 50.2596 24.4011 49.1717C24.615 48.3211 24.7243 45.0463 24.7243 43.4033L32.0154 45.105C31.9137 46.9583 31.2024 51.2551 33.6954 52.0156C34.1101 52.1411 34.5569 52.2567 35.026 52.3667Z" fill="#489CFF"/>
<path d="M31.7631 48.7485C28.8888 48.9841 25.1964 47.7236 24.495 43.7406L23.8622 40.1465C23.1608 36.1636 24.6064 32.5521 28.2172 31.8662C31.8279 31.1804 35.0954 33.8967 35.7966 37.8797L36.0769 39.4707C36.3459 40.9992 36.8914 48.3282 31.7631 48.7485Z" fill="#489CFF"/>
<path d="M34.4286 45.0915C33.9128 42.3991 33.6761 40.6027 33.7036 38.7077C34.4303 37.3846 34.2393 35.864 34.074 35.2076C34.5745 35.5377 35.1629 35.6943 35.7546 35.655C35.7546 35.655 34.5528 30.6454 30.4679 29.2974C29.7167 28.9939 27.7988 28.6104 25.2523 28.9732C23.0865 29.2816 17.7475 30.9635 16.9847 37.2064V37.21C16.9596 37.4171 16.447 43.1691 15.4256 45.9289C14.0519 49.6387 12.1229 50.7914 12.1718 55.0721C12.2347 60.578 21.9805 61.311 27.8579 60.8991C33.7354 60.4872 37.0175 58.4798 37.0605 54.5119C37.1072 50.0656 35.4611 50.4786 34.4286 45.0915Z" fill="#0A0A0A"/>
<path d="M10.7906 67.5394L10.6006 67.5461L11.3031 88.8669L11.4931 88.8601L10.7906 67.5394Z" fill="#0C0C0C"/>
<path d="M181.671 180.983H2.86454C2.82924 180.983 2.79539 180.968 2.77043 180.943C2.74547 180.917 2.73145 180.881 2.73145 180.845C2.73145 180.808 2.74547 180.773 2.77043 180.747C2.79539 180.721 2.82924 180.707 2.86454 180.707H181.671C181.706 180.707 181.74 180.721 181.765 180.747C181.79 180.773 181.804 180.808 181.804 180.845C181.804 180.881 181.79 180.917 181.765 180.943C181.74 180.968 181.706 180.983 181.671 180.983Z" fill="#292A2E"/>
<path d="M163.215 155.103C163.165 155.103 163.116 155.082 163.081 155.045C162.813 154.767 162.376 149.662 161.2 134.463C160.719 128.244 160.264 122.37 159.932 118.8C159.908 118.545 159.813 118.515 159.782 118.506C159.328 118.363 157.947 119.494 157.176 120.485C157.16 120.505 157.141 120.522 157.119 120.534C157.097 120.546 157.073 120.554 157.048 120.557C157.023 120.56 156.998 120.557 156.974 120.55C156.95 120.542 156.928 120.53 156.908 120.514C156.889 120.498 156.873 120.478 156.861 120.455C156.849 120.432 156.842 120.407 156.839 120.381C156.836 120.355 156.839 120.329 156.846 120.304C156.853 120.28 156.865 120.256 156.88 120.236C157.39 119.581 159.052 117.865 159.891 118.127C160.061 118.18 160.272 118.333 160.311 118.762C160.643 122.335 161.097 128.211 161.579 134.431C162.294 143.667 163.103 154.131 163.369 154.79C163.39 154.819 163.402 154.854 163.405 154.89C163.407 154.927 163.4 154.963 163.384 154.995C163.368 155.028 163.344 155.055 163.314 155.074C163.284 155.093 163.25 155.103 163.215 155.103Z" fill="#494949"/>
<path d="M159.443 125.35C162.599 122.724 163.644 118.635 161.779 116.219C159.914 113.802 155.844 113.972 152.689 116.599C149.534 119.226 148.489 123.314 150.354 125.731C152.219 128.147 156.288 127.977 159.443 125.35Z" fill="#489CFF"/>
<path opacity="0.2" d="M159.443 125.35C162.599 122.724 163.644 118.635 161.779 116.219C159.914 113.802 155.844 113.972 152.689 116.599C149.534 119.226 148.489 123.314 150.354 125.731C152.219 128.147 156.288 127.977 159.443 125.35Z" fill="white"/>
<path d="M151.238 126.345C151.22 126.345 151.203 126.34 151.188 126.33C151.172 126.32 151.16 126.305 151.153 126.288C151.145 126.271 151.142 126.253 151.144 126.234C151.147 126.215 151.154 126.198 151.165 126.184L160.157 114.922C160.165 114.911 160.175 114.903 160.186 114.897C160.197 114.89 160.209 114.886 160.222 114.885C160.234 114.884 160.247 114.885 160.259 114.889C160.271 114.893 160.282 114.899 160.292 114.907C160.302 114.916 160.31 114.926 160.316 114.938C160.321 114.949 160.325 114.962 160.326 114.975C160.327 114.988 160.326 115.001 160.322 115.014C160.318 115.026 160.312 115.038 160.303 115.048L151.312 126.31C151.303 126.321 151.291 126.33 151.279 126.336C151.266 126.342 151.252 126.345 151.238 126.345Z" fill="white"/>
<path d="M165.176 152.688C165.146 152.688 165.116 152.68 165.089 152.666C165.062 152.652 165.039 152.631 165.021 152.605C165.004 152.579 164.992 152.549 164.988 152.518C164.984 152.487 164.987 152.455 164.997 152.426L168.374 142.337C168.474 142.041 168.643 141.775 168.867 141.564C169.091 141.353 169.362 141.204 169.656 141.13C169.95 141.057 170.257 141.061 170.549 141.142C170.841 141.224 171.108 141.38 171.327 141.597L173.112 143.369C173.149 143.405 173.17 143.455 173.171 143.507C173.172 143.56 173.153 143.611 173.119 143.648C173.084 143.686 173.036 143.708 172.985 143.709C172.935 143.711 172.886 143.691 172.85 143.655L171.064 141.883C170.891 141.712 170.68 141.589 170.45 141.525C170.22 141.46 169.977 141.457 169.745 141.515C169.514 141.573 169.299 141.691 169.123 141.857C168.946 142.024 168.812 142.233 168.733 142.467L165.356 152.555C165.343 152.594 165.319 152.628 165.287 152.651C165.254 152.675 165.216 152.688 165.176 152.688Z" fill="#494949"/>
<path d="M178.101 148.954C180.439 147.032 180.3 142.804 177.791 139.511C175.281 136.218 171.351 135.107 169.013 137.029C166.675 138.952 166.814 143.18 169.323 146.473C171.833 149.765 175.763 150.877 178.101 148.954Z" fill="#489CFF"/>
<path d="M161.681 154.459C161.638 154.459 161.597 154.444 161.563 154.417C161.53 154.389 161.506 154.351 161.496 154.307L155.828 129.693C155.79 129.525 155.707 129.372 155.59 129.249C155.473 129.127 155.325 129.041 155.164 129C155.002 128.959 154.833 128.965 154.675 129.018C154.517 129.071 154.375 129.167 154.267 129.298L152.52 131.395C152.487 131.435 152.44 131.459 152.389 131.463C152.339 131.467 152.289 131.449 152.251 131.415C152.213 131.381 152.19 131.332 152.186 131.28C152.182 131.228 152.199 131.176 152.232 131.136L153.979 129.039C154.134 128.854 154.334 128.716 154.559 128.642C154.784 128.567 155.025 128.558 155.254 128.617C155.484 128.675 155.693 128.797 155.86 128.971C156.026 129.145 156.143 129.363 156.198 129.602L161.866 154.216C161.873 154.245 161.873 154.276 161.867 154.305C161.861 154.334 161.848 154.361 161.831 154.385C161.813 154.408 161.79 154.427 161.764 154.44C161.738 154.453 161.71 154.46 161.681 154.46V154.459Z" fill="#494949"/>
<path d="M159.477 136.867C160.165 132.73 158.341 128.95 155.403 128.423C152.466 127.897 149.528 130.823 148.84 134.96C148.153 139.097 149.977 142.877 152.914 143.404C155.851 143.93 158.79 141.004 159.477 136.867Z" fill="#489CFF"/>
<path d="M163.215 155.103C163.207 155.102 163.199 155.102 163.191 155.101C163.166 155.098 163.143 155.09 163.121 155.077C163.099 155.064 163.08 155.047 163.065 155.026C163.049 155.006 163.038 154.983 163.031 154.958C163.025 154.933 163.023 154.906 163.026 154.881L166.645 124.359C166.685 124.027 166.816 123.713 167.023 123.456C167.229 123.199 167.503 123.01 167.812 122.91C168.12 122.811 168.449 122.807 168.759 122.897C169.07 122.988 169.349 123.169 169.562 123.42L173.699 128.287C173.732 128.326 173.749 128.378 173.746 128.43C173.743 128.482 173.72 128.531 173.682 128.566C173.645 128.601 173.595 128.618 173.545 128.615C173.494 128.612 173.447 128.588 173.414 128.549L169.277 123.682C169.112 123.488 168.896 123.348 168.656 123.278C168.416 123.208 168.162 123.211 167.924 123.288C167.686 123.364 167.474 123.511 167.314 123.709C167.154 123.908 167.053 124.15 167.022 124.407L163.403 154.929C163.398 154.977 163.375 155.021 163.341 155.053C163.306 155.085 163.261 155.102 163.215 155.103Z" fill="#494949"/>
<path d="M177.943 130.992C179.386 128.281 177.688 124.436 174.149 122.404C170.611 120.371 166.573 120.92 165.129 123.63C163.686 126.34 165.384 130.185 168.922 132.218C172.461 134.251 176.499 133.702 177.943 130.992Z" fill="#489CFF"/>
<path opacity="0.2" d="M178.101 148.954C180.439 147.032 180.3 142.804 177.791 139.511C175.281 136.218 171.351 135.107 169.013 137.029C166.675 138.952 166.814 143.18 169.323 146.473C171.833 149.765 175.763 150.877 178.101 148.954Z" fill="white"/>
<path opacity="0.5" d="M159.477 136.867C160.165 132.73 158.341 128.95 155.403 128.423C152.466 127.897 149.528 130.823 148.84 134.96C148.153 139.097 149.977 142.877 152.914 143.404C155.851 143.93 158.79 141.004 159.477 136.867Z" fill="white"/>
<path opacity="0.5" d="M177.943 130.992C179.386 128.281 177.688 124.436 174.149 122.404C170.611 120.371 166.573 120.92 165.129 123.63C163.686 126.34 165.384 130.185 168.922 132.218C172.461 134.251 176.499 133.702 177.943 130.992Z" fill="white"/>
<path d="M167.844 181H158.585L157.051 150.232H169.378L167.844 181Z" fill="#292A2E"/>
<path opacity="0.3" d="M167.844 181H158.585L157.051 150.232H169.378L167.844 181Z" fill="white"/>
<path d="M178.101 149.052C178.086 149.052 178.072 149.048 178.059 149.042C178.046 149.035 178.035 149.026 178.026 149.014L168.938 137.089C168.922 137.069 168.915 137.043 168.918 137.017C168.921 136.991 168.933 136.967 168.953 136.951C168.973 136.934 168.998 136.927 169.023 136.93C169.048 136.933 169.071 136.946 169.087 136.967L178.175 148.892C178.186 148.906 178.193 148.924 178.195 148.942C178.197 148.961 178.194 148.979 178.186 148.996C178.179 149.013 178.167 149.027 178.151 149.037C178.136 149.047 178.119 149.052 178.101 149.052Z" fill="white"/>
<path d="M177.338 131.947C177.318 131.947 177.298 131.94 177.282 131.927L165.652 123.108C165.642 123.1 165.634 123.091 165.627 123.08C165.621 123.069 165.616 123.056 165.614 123.043C165.612 123.031 165.613 123.018 165.616 123.005C165.619 122.992 165.624 122.98 165.632 122.97C165.639 122.959 165.648 122.951 165.659 122.944C165.67 122.937 165.681 122.933 165.694 122.931C165.706 122.929 165.719 122.929 165.731 122.932C165.743 122.935 165.754 122.941 165.764 122.948L177.395 131.768C177.411 131.781 177.423 131.798 177.429 131.818C177.435 131.838 177.434 131.859 177.428 131.879C177.422 131.898 177.41 131.915 177.394 131.928C177.377 131.94 177.358 131.946 177.338 131.946V131.947Z" fill="white"/>
<path d="M152.549 143.272C152.541 143.272 152.533 143.271 152.525 143.269C152.5 143.262 152.479 143.245 152.467 143.223C152.454 143.2 152.451 143.173 152.457 143.148L156.16 128.741C156.163 128.728 156.168 128.716 156.176 128.706C156.183 128.695 156.193 128.687 156.204 128.68C156.214 128.673 156.226 128.669 156.239 128.667C156.251 128.665 156.264 128.666 156.276 128.67C156.289 128.673 156.3 128.679 156.31 128.687C156.32 128.695 156.328 128.705 156.335 128.716C156.341 128.728 156.345 128.74 156.346 128.753C156.348 128.766 156.347 128.779 156.343 128.792L152.641 143.199C152.636 143.22 152.624 143.238 152.607 143.251C152.591 143.265 152.57 143.272 152.549 143.272Z" fill="white"/>
</svg>
