<svg width="512" height="512" viewBox="0 0 512 512" fill="none" xmlns="http://www.w3.org/2000/svg">
<path d="M25.9822 387V125.182H129.278C149.05 125.182 165.925 128.719 179.903 135.793C193.965 142.781 204.661 152.71 211.991 165.58C219.406 178.364 223.113 193.406 223.113 210.707C223.113 228.094 219.363 243.051 211.863 255.58C204.363 268.023 193.496 277.568 179.264 284.216C165.116 290.864 147.985 294.188 127.871 294.188H58.7095V249.699H118.923C129.491 249.699 138.269 248.25 145.258 245.352C152.246 242.455 157.445 238.108 160.854 232.312C164.349 226.517 166.096 219.315 166.096 210.707C166.096 202.014 164.349 194.685 160.854 188.719C157.445 182.753 152.204 178.236 145.13 175.168C138.141 172.014 129.32 170.438 118.667 170.438H81.3374V387H25.9822ZM167.374 267.852L232.445 387H171.337L107.673 267.852H167.374ZM307.36 387H248.042L338.425 125.182H409.761L500.016 387H440.698L375.116 185.011H373.07L307.36 387ZM303.653 284.088H443.766V327.298H303.653V284.088Z" fill="url(#paint0_linear_12_4)"/>
<defs>
<linearGradient id="paint0_linear_12_4" x1="3" y1="256" x2="509" y2="256" gradientUnits="userSpaceOnUse">
<stop stop-color="#A855F7"/>
<stop offset="1" stop-color="#F472B6"/>
</linearGradient>
</defs>
</svg>
